<?xml version="1.0" encoding="UTF-8"?>
<svg version="1.1" id="Capa_1" xmlns="http://www.w3.org/2000/svg" xmlns:xlink="http://www.w3.org/1999/xlink" x="0px" y="0px" viewBox="0 0 81 81"  style="enable-background:new 0 0 320 79.3;" xml:space="preserve">
<style type="text/css">
	.st0{fill:#FF991C;}
	.st1{fill:#FF7121;}
	.st2{fill:#FFB517;}
	.st3{fill:#FFCA0E;}
	.st4{fill:#585757;}
</style>
<path class="st0" d="M40.9,9.7c0-1.4-1.2-2.6-2.6-2.5c-1.4,0-2.6,1.2-2.5,2.6c0,1.4,1.2,2.6,2.6,2.5C39.8,12.2,41,11.1,40.9,9.7z   M40.9,67.1c-1.4,0-2.5,1.2-2.5,2.6s1.2,2.6,2.6,2.5c1.4,0,2.6-1.2,2.5-2.6S42.3,67,40.9,67.1z M28,14.8c1.3-0.5,1.9-2.1,1.4-3.4  s-2-1.9-3.3-1.4c-1.3,0.6-1.9,2.1-1.4,3.4S26.7,15.3,28,14.8z M51.3,64.5c-1.3,0.5-1.9,2.1-1.4,3.3c0.5,1.3,2,1.9,3.3,1.4  c1.3-0.6,1.9-2.1,1.4-3.4C54.1,64.6,52.6,63.9,51.3,64.5z M19.4,21.1c1-1,1-2.6,0-3.6s-2.6-1-3.6,0s-1,2.6,0,3.6  S18.4,22.1,19.4,21.1z M59.9,58.2c-1,1-1,2.6,0,3.6s2.6,1,3.6,0s1-2.6,0-3.6C62.5,57.1,60.9,57.1,59.9,58.2z M10.5,31.7  c1.3,0.5,2.8-0.1,3.3-1.4s-0.1-2.8-1.4-3.3s-2.8,0.1-3.3,1.4S9.2,31.2,10.5,31.7z M68.8,47.6c-1.3-0.5-2.8,0.1-3.3,1.4  c-0.5,1.3,0.1,2.8,1.4,3.3s2.8-0.1,3.3-1.4C70.7,49.6,70.1,48.1,68.8,47.6z M12.2,40.9c0-1.4-1.2-2.5-2.6-2.5S7,39.6,7.1,41  c0,1.4,1.2,2.6,2.6,2.5S12.2,42.3,12.2,40.9z M69.6,35.8c-1.4,0-2.6,1.2-2.5,2.6c0,1.4,1.2,2.5,2.6,2.5s2.6-1.2,2.5-2.6  C72.2,37,71,35.8,69.6,35.8z M11.4,49.9c-1.3,0.6-1.9,2.1-1.4,3.4c0.6,1.3,2.1,1.9,3.4,1.4s1.9-2.1,1.4-3.4  C14.2,50,12.7,49.4,11.4,49.9z M67.8,29.4c1.3-0.6,1.9-2.1,1.4-3.4c-0.6-1.3-2.1-1.9-3.4-1.4s-1.9,2.1-1.4,3.4  C65,29.3,66.5,29.9,67.8,29.4z M17.5,59.9c-1,1-1,2.6,0,3.6s2.6,1,3.6,0s1-2.6,0-3.6S18.5,58.9,17.5,59.9z M61.8,19.4  c1-1,1-2.6,0-3.6s-2.6-1-3.6,0s-1,2.6,0,3.6S60.8,20.4,61.8,19.4z M30.3,65.4c-1.3-0.5-2.8,0.1-3.3,1.4s0.1,2.8,1.4,3.3  s2.8-0.1,3.3-1.4C32.2,67.5,31.6,66,30.3,65.4z M52.3,12.4c0.5-1.3-0.1-2.8-1.4-3.3c-1.3-0.5-2.8,0.1-3.3,1.4s0.1,2.8,1.4,3.3  C50.3,14.4,51.8,13.7,52.3,12.4z"/>
<path class="st1" d="M35.4,19.7c1.5-0.3,2.6-1.7,2.3-3.3c-0.3-1.5-1.7-2.6-3.3-2.3s-2.6,1.7-2.3,3.3C32.4,18.9,33.9,20,35.4,19.7z   M43.8,59.6c-1.5,0.3-2.6,1.7-2.3,3.3c0.3,1.5,1.7,2.6,3.3,2.3s2.6-1.7,2.3-3.3S45.4,59.3,43.8,59.6z M28.1,22.8  c1.3-0.8,1.7-2.6,0.9-3.9c-0.8-1.3-2.6-1.7-3.9-0.9c-1.3,0.8-1.7,2.6-0.9,3.9C25,23.3,26.8,23.7,28.1,22.8z M51.1,56.4  c-1.3,0.8-1.7,2.6-0.9,3.9c0.8,1.3,2.6,1.7,3.9,0.9c1.3-0.8,1.7-2.6,0.9-3.9S52.5,55.6,51.1,56.4z M18.6,29.2c1.3,0.9,3.1,0.6,4-0.7  c0.9-1.3,0.6-3.1-0.7-4c-1.3-0.9-3.1-0.6-4,0.7C17,26.5,17.3,28.3,18.6,29.2z M60.7,50.1c-1.3-0.9-3.1-0.6-4,0.7s-0.6,3.1,0.7,4  s3.1,0.6,4-0.7C62.3,52.8,61.9,51,60.7,50.1z M16.2,38c1.5,0.4,3.1-0.6,3.4-2.1c0.4-1.5-0.6-3.1-2.1-3.4c-1.5-0.4-3.1,0.6-3.4,2.1  C13.7,36.2,14.7,37.7,16.2,38z M63.1,41.2c-1.5-0.4-3.1,0.6-3.4,2.1c-0.4,1.5,0.6,3.1,2.1,3.4c1.5,0.4,3.1-0.6,3.4-2.1  C65.6,43.1,64.6,41.6,63.1,41.2z M19.7,43.8c-0.3-1.5-1.7-2.6-3.3-2.3c-1.5,0.3-2.6,1.7-2.3,3.3s1.7,2.6,3.3,2.3  C18.9,46.9,20,45.4,19.7,43.8z M59.6,35.4c0.3,1.5,1.7,2.6,3.3,2.3c1.5-0.3,2.6-1.7,2.3-3.3s-1.7-2.6-3.3-2.3  C60.3,32.4,59.3,33.9,59.6,35.4z M18.9,50.2c-1.3,0.8-1.7,2.6-0.9,3.9c0.8,1.3,2.6,1.7,3.9,0.9s1.7-2.6,0.9-3.9  C22,49.8,20.3,49.4,18.9,50.2z M60.4,29c1.3-0.8,1.7-2.6,0.9-3.9s-2.6-1.7-3.9-0.9c-1.3,0.8-1.7,2.6-0.9,3.9  C57.3,29.5,59,29.9,60.4,29z M28.5,56.7c-1.3-0.9-3.1-0.6-4,0.7s-0.6,3.1,0.7,4c1.3,0.9,3.1,0.6,4-0.7S29.8,57.6,28.5,56.7z   M50.7,22.6c1.3,0.9,3.1,0.6,4-0.7c0.9-1.3,0.6-3.1-0.7-4s-3.1-0.6-4,0.7C49.2,19.9,49.5,21.7,50.7,22.6z M35.9,59.6  c-1.5-0.4-3.1,0.6-3.4,2.1c-0.4,1.5,0.6,3.1,2.1,3.4c1.5,0.4,3.1-0.6,3.4-2.1C38.4,61.5,37.4,60,35.9,59.6z M43.4,19.6  c1.5,0.4,3.1-0.6,3.4-2.1c0.4-1.5-0.6-3.1-2.1-3.4c-1.5-0.4-3.1,0.6-3.4,2.1C40.9,17.7,41.8,19.3,43.4,19.6z"/>
<path class="st2" d="M44.3,3.2c-1.1-0.1-2.1,0.8-2.2,2c0,1.1,0.8,2.1,2,2.2c1.1,0.1,2.1-0.8,2.2-2C46.3,4.2,45.4,3.3,44.3,3.2z   M35.2,71.9c-1.1-0.1-2.1,0.8-2.2,2c-0.1,1.1,0.8,2.1,2,2.2c1.1,0.1,2.1-0.8,2.2-2C37.2,73,36.3,72,35.2,71.9z M30,4.2  c-1.1,0.4-1.6,1.6-1.2,2.7s1.6,1.6,2.6,1.2c1.1-0.4,1.6-1.6,1.2-2.6C32.3,4.4,31.1,3.8,30,4.2z M47.9,71.2c-1.1,0.4-1.6,1.6-1.2,2.6  c0.4,1.1,1.6,1.6,2.7,1.2c1.1-0.4,1.6-1.6,1.2-2.7C50.1,71.4,48.9,70.8,47.9,71.2z M20.1,10.7c-0.8-0.8-2.1-0.9-2.9-0.1  c-0.8,0.8-0.9,2.1-0.1,2.9c0.8,0.8,2.1,0.9,2.9,0.1C20.8,12.9,20.9,11.6,20.1,10.7z M59.3,65.6c-0.8,0.8-0.9,2.1-0.1,2.9  c0.8,0.8,2.1,0.9,2.9,0.1c0.8-0.8,0.9-2.1,0.1-2.9C61.5,64.9,60.2,64.9,59.3,65.6z M11.5,23.2c0.5-1,0-2.3-1-2.8s-2.3,0-2.7,1  c-0.5,1,0,2.3,1,2.8C9.8,24.6,11,24.2,11.5,23.2z M70.5,55.1c-1-0.5-2.3,0-2.7,1c-0.5,1,0,2.3,1,2.7c1,0.5,2.3,0,2.7-1  C72,56.8,71.6,55.6,70.5,55.1z M7.3,35.2c0.1-1.1-0.8-2.1-2-2.2c-1.1,0-2.1,0.8-2.2,2c-0.1,1.1,0.8,2.1,2,2.2  C6.3,37.2,7.3,36.3,7.3,35.2z M74.1,42.1c-1.1-0.1-2.1,0.8-2.2,2c-0.1,1.1,0.8,2.1,2,2.2c1.1,0.1,2.1-0.8,2.2-2  C76.1,43.1,75.2,42.2,74.1,42.1z M5.4,46.6c-1.1,0.4-1.6,1.6-1.2,2.7c0.4,1.1,1.6,1.6,2.7,1.2c1.1-0.4,1.6-1.6,1.2-2.7  C7.7,46.8,6.5,46.2,5.4,46.6z M73.8,32.6c1.1-0.4,1.6-1.6,1.2-2.6c-0.4-1.1-1.6-1.6-2.7-1.2s-1.6,1.6-1.2,2.6  C71.6,32.5,72.8,33,73.8,32.6z M10.7,59.2c-0.8,0.8-0.9,2.1-0.1,2.9c0.8,0.8,2.1,0.9,2.9,0.1c0.8-0.8,0.9-2.1,0.1-2.9  C12.9,58.5,11.6,58.4,10.7,59.2z M68.7,17.2c-0.8-0.8-2.1-0.9-2.9-0.1s-0.9,2.1-0.1,2.9s2.1,0.9,2.9,0.1  C69.4,19.3,69.5,18,68.7,17.2z M23.2,67.8c-1-0.5-2.3,0-2.7,1c-0.5,1,0,2.3,1,2.7c1,0.5,2.3,0,2.8-1C24.6,69.5,24.2,68.3,23.2,67.8z   M57.9,7.8c-1-0.5-2.3,0-2.7,1c-0.5,1,0,2.3,1,2.7c1,0.5,2.3,0,2.7-1C59.4,9.5,58.9,8.2,57.9,7.8z"/>
<path class="st3" d="M50.6,1.4c-0.1,0-0.2,0-0.3,0c-0.9,0.1-1.6,0.8-1.7,1.7c0,0.1,0,0.2,0,0.3c0.1,0.9,0.8,1.6,1.7,1.7  c0.1,0,0.2,0,0.3,0c0.9-0.1,1.6-0.8,1.7-1.7c0-0.1,0-0.2,0-0.3C52.2,2.2,51.5,1.4,50.6,1.4z M28.9,74.3c-0.1,0-0.2,0-0.3,0  c-0.9,0.1-1.6,0.8-1.7,1.7c0,0.1,0,0.2,0,0.3c0.1,0.9,0.8,1.6,1.7,1.7c0.1,0,0.2,0,0.3,0c0.9-0.1,1.6-0.8,1.7-1.7c0-0.1,0-0.2,0-0.3  C30.5,75.1,29.8,74.4,28.9,74.3z M37.3,1c-0.4-0.8-1.3-1.2-2.2-0.9c-0.1,0-0.2,0.1-0.2,0.1c-0.8,0.4-1.2,1.3-0.9,2.2  c0,0.1,0.1,0.2,0.1,0.2c0.4,0.8,1.3,1.2,2.2,0.9c0.1,0,0.2-0.1,0.2-0.1c0.8-0.4,1.2-1.3,0.9-2.2C37.4,1.1,37.3,1.1,37.3,1z   M45.2,76.7c-0.4-0.8-1.3-1.2-2.2-0.9c-0.1,0-0.2,0.1-0.2,0.1c-0.8,0.4-1.2,1.3-0.9,2.2c0,0.1,0.1,0.2,0.1,0.2  c0.4,0.8,1.3,1.2,2.2,0.9c0.1,0,0.2-0.1,0.2-0.1c0.8-0.4,1.2-1.3,0.9-2.2C45.3,76.8,45.2,76.7,45.2,76.7z M22.7,4.8  c-0.7-0.6-1.7-0.6-2.3,0C20.3,4.9,20.2,5,20.1,5c-0.6,0.7-0.6,1.7,0,2.3c0.1,0.1,0.1,0.1,0.2,0.2c0.7,0.6,1.7,0.6,2.3,0  c0.1-0.1,0.1-0.1,0.2-0.2c0.6-0.7,0.6-1.7,0-2.4C22.8,4.9,22.7,4.9,22.7,4.8z M58.9,71.7c-0.7-0.6-1.7-0.6-2.3,0  c-0.1,0.1-0.1,0.1-0.2,0.2c-0.6,0.7-0.6,1.7,0,2.4c0.1,0.1,0.1,0.1,0.2,0.2c0.7,0.6,1.7,0.6,2.4,0c0.1-0.1,0.1-0.1,0.2-0.2  c0.6-0.7,0.6-1.7,0-2.4C59.1,71.8,59,71.8,58.9,71.7z M10.9,14.1c-0.1,0-0.2-0.1-0.2-0.1c-0.8-0.3-1.8,0.1-2.2,0.9  c0,0.1-0.1,0.2-0.1,0.2c-0.3,0.8,0.1,1.8,0.9,2.2c0.1,0,0.2,0.1,0.2,0.1c0.8,0.3,1.8-0.1,2.2-0.9c0-0.1,0.1-0.2,0.1-0.2  C12.1,15.4,11.7,14.5,10.9,14.1z M70,62c-0.1,0-0.2-0.1-0.2-0.1C69,61.6,68,62,67.6,62.8c0,0.1-0.1,0.2-0.1,0.2  c-0.3,0.8,0.1,1.8,0.9,2.2c0.1,0,0.2,0.1,0.2,0.1c0.8,0.3,1.8-0.1,2.2-0.9c0-0.1,0.1-0.2,0.1-0.2C71.2,63.3,70.8,62.4,70,62z   M3,30.6c0.1,0,0.2,0,0.3,0c0.9-0.1,1.6-0.8,1.7-1.7c0-0.1,0-0.2,0-0.3c-0.1-0.9-0.8-1.6-1.7-1.7c-0.1,0-0.2,0-0.3,0  c-0.9,0.1-1.6,0.8-1.7,1.7c0,0.1,0,0.2,0,0.3C1.4,29.8,2.1,30.5,3,30.6z M76.2,48.7c-0.1,0-0.2,0-0.3,0c-0.9,0.1-1.6,0.8-1.7,1.7  c0,0.1,0,0.2,0,0.3c0.1,0.9,0.8,1.6,1.7,1.7c0.1,0,0.2,0,0.3,0c0.9-0.1,1.6-0.8,1.7-1.7c0-0.1,0-0.2,0-0.3  C77.8,49.4,77.1,48.7,76.2,48.7z M3.4,42.8C3,42,2.1,41.6,1.2,41.9C1.1,41.9,1.1,42,1,42c-0.8,0.4-1.2,1.3-0.9,2.2  c0,0.1,0.1,0.2,0.1,0.2c0.4,0.8,1.3,1.2,2.2,0.9c0.1,0,0.2-0.1,0.2-0.1c0.8-0.4,1.2-1.3,0.9-2.2C3.5,42.9,3.4,42.9,3.4,42.8z   M79.2,35.1c0-0.1-0.1-0.2-0.1-0.2c-0.4-0.8-1.3-1.2-2.2-0.9c-0.1,0-0.2,0.1-0.2,0.1c-0.8,0.4-1.2,1.3-0.9,2.2  c0,0.1,0.1,0.2,0.1,0.2c0.4,0.8,1.3,1.2,2.2,0.9c0.1,0,0.2-0.1,0.2-0.1C79.1,36.9,79.5,36,79.2,35.1z M7.4,56.4  c-0.7-0.6-1.7-0.6-2.4,0c-0.1,0.1-0.1,0.1-0.2,0.2c-0.6,0.7-0.6,1.7,0,2.3C4.9,59,5,59.1,5,59.1c0.7,0.6,1.7,0.6,2.3,0  C7.4,59,7.4,59,7.5,58.9c0.6-0.7,0.6-1.7,0-2.3C7.5,56.5,7.4,56.5,7.4,56.4z M74.4,20.3c-0.1-0.1-0.1-0.1-0.2-0.2  c-0.7-0.6-1.7-0.6-2.3,0c-0.1,0.1-0.1,0.1-0.2,0.2c-0.6,0.7-0.6,1.7,0,2.3c0.1,0.1,0.1,0.1,0.2,0.2c0.7,0.6,1.7,0.6,2.4,0  c0.1-0.1,0.1-0.1,0.2-0.2C75,22,75,21,74.4,20.3z M16.5,67.6c-0.1,0-0.2-0.1-0.2-0.1c-0.8-0.3-1.8,0.1-2.2,0.9  c0,0.1-0.1,0.2-0.1,0.2c-0.3,0.8,0.1,1.8,0.9,2.2c0.1,0,0.2,0.1,0.2,0.1c0.8,0.3,1.8-0.1,2.2-0.9c0-0.1,0.1-0.2,0.1-0.3  C17.7,68.9,17.3,68,16.5,67.6z M64.4,8.5c-0.1,0-0.2-0.1-0.2-0.1c-0.8-0.3-1.8,0.1-2.2,0.9c0,0.1-0.1,0.2-0.1,0.2  c-0.3,0.8,0.1,1.8,0.9,2.2c0.1,0,0.2,0.1,0.2,0.1c0.8,0.3,1.8-0.1,2.2-0.9c0-0.1,0.1-0.2,0.1-0.2C65.6,9.8,65.2,8.9,64.4,8.5z"/>
</svg>