<svg xmlns="http://www.w3.org/2000/svg" style="display: none;">

<symbol id="icon-center" viewBox="0 0 30 30" fill="none" stroke="currentColor" stroke-width="1.5">
   <path fill="currentColor"
   d="M714.075 687.5c-16.6699 0 -31.5752 12.9463 -31.5752 31.5752c0 16.3662 12.96 31.25 31.5752 31.25c16.3662 0 31.25 -12.959 31.25 -31.5752c0 -17.2471 -14.002 -31.25 -31.25 -31.25zM714.075 562.5c-16.6699 0 -31.5752 12.9463 -31.5752 31.5752
c0 16.3662 12.96 31.25 31.5752 31.25c16.3662 0 31.25 -12.959 31.25 -31.5752c0 -15.3379 -11.0742 -28.1104 -25.6572 -30.75c-1.81445 -0.328125 -3.68359 -0.5 -5.59277 -0.5zM714.075 437.5c-16.6699 0 -31.5752 12.9463 -31.5752 31.5752
c0 16.3662 12.96 31.25 31.5752 31.25c16.3662 0 31.25 -12.959 31.25 -31.5752c0 -17.2471 -14.002 -31.25 -31.25 -31.25zM120 93.75c-17.2471 0 -31.25 14.0029 -31.25 31.25s14.0029 31.25 31.25 31.25v687.5h-31.25c-17.2471 0 -31.25 14.0029 -31.25 31.25
s14.0029 31.25 31.25 31.25h583.25h229.25c17.2471 0 31.25 -14.0029 31.25 -31.25s-14.0029 -31.25 -31.25 -31.25h-31.25v-20.75v-479.25c17.2471 0 31.25 -14.0029 31.25 -31.25s-14.0029 -31.25 -31.25 -31.25h-250v-125c17.2471 0 31.25 -14.0029 31.25 -31.25
s-14.0029 -31.25 -31.25 -31.25h-500zM432.5 500c-17.2471 0 -31.25 14.0029 -31.25 31.25s14.0029 31.25 31.25 31.25h31.25c17.2471 0 31.25 -14.0029 31.25 -31.25s-14.0029 -31.25 -31.25 -31.25h-31.25zM432.5 375c-17.2471 0 -31.25 14.0029 -31.25 31.25
s14.0029 31.25 31.25 31.25h31.25c17.2471 0 31.25 -14.0029 31.25 -31.25s-14.0029 -31.25 -31.25 -31.25h-31.25zM432.5 250c-17.2471 0 -31.25 14.0029 -31.25 31.25s14.0029 31.25 31.25 31.25h31.25c17.2471 0 31.25 -14.0029 31.25 -31.25
s-14.0029 -31.25 -31.25 -31.25h-31.25zM276.25 500c-17.2471 0 -31.25 14.0029 -31.25 31.25s14.0029 31.25 31.25 31.25h31.25c17.2471 0 31.25 -14.0029 31.25 -31.25s-14.0029 -31.25 -31.25 -31.25h-31.25zM276.25 375c-17.2471 0 -31.25 14.0029 -31.25 31.25
s14.0029 31.25 31.25 31.25h31.25c17.2471 0 31.25 -14.0029 31.25 -31.25s-14.0029 -31.25 -31.25 -31.25h-31.25zM276.25 250c-17.2471 0 -31.25 14.0029 -31.25 31.25s14.0029 31.25 31.25 31.25h31.25c17.2471 0 31.25 -14.0029 31.25 -31.25
s-14.0029 -31.25 -31.25 -31.25h-31.25zM807.5 343.75v500h-187.5v-500h116h71.5zM557.5 156.25v687.5h-62.5v-109.375c0 -43.1221 -35.0029 -78.125 -78.125 -78.125h-93.75c-43.1221 0 -78.125 35.0029 -78.125 78.125v109.375h-62.5v-115.75v-571.75h375zM307.5 843.75
v-47.75v-61.625c0 -8.63574 6.98926 -15.625 15.625 -15.625h93.75c8.63574 0 15.625 6.98926 15.625 15.625v109.375h-125z" />
</symbol>

<symbol id="icon-mail" viewBox="0 0 30 30" fill="none" stroke="currentColor" stroke-width="1.5">
   <path fill="currentColor"
d="M120 291.423v-10.1729c0 -34.5146 27.9854 -62.5 62.5 -62.5h625c34.5146 0 62.5 27.9854 62.5 62.5v10.1318c0 22.5312 -11.835 42.1992 -29.6904 53.1992l-312.501 192.302c-4.36133 2.68457 -34.0195 19.4453 -65.6201 -0.000976562l-312.483 -192.251
c-17.8691 -11.0088 -29.7051 -30.6348 -29.7051 -53.208zM57.5 718.75c0 69.001 55.999 125 125 125h625c69.001 0 125 -55.999 125 -125v-437.5c0 -69.001 -55.999 -125 -125 -125h-625c-68.9561 0 -124.926 55.9248 -125 124.863v437.637zM429.505 590.153
c39.501 24.3086 90.4922 24.9219 130.993 -0.00195312l309.502 -190.456v319.055c0 34.5146 -27.9854 62.5 -62.5 62.5h-625c-34.5146 0 -62.5 -27.9854 -62.5 -62.5v-319.015z" />
</symbol>

<symbol id="icon-lock" viewBox="0 0 30 30" fill="none" stroke="currentColor" stroke-width="1.5">
   <path fill="currentColor"
d="M276.25 875c-34.5146 0 -62.5 -27.9854 -62.5 -62.5v-281.25c0 -34.5146 27.9854 -62.5 62.5 -62.5h437.5c34.5146 0 62.5 27.9854 62.5 62.5v281.25c0 34.5146 -27.9854 62.5 -62.5 62.5h-437.5zM276.25 937.5h437.5c69.001 0 125 -55.999 125 -125v-281.25
c0 -69.001 -55.999 -125 -125 -125v-125c0 -120.724 -98.0264 -218.75 -218.75 -218.75s-218.75 98.0264 -218.75 218.75v125c-69.001 0 -125 55.999 -125 125v281.25c0 69.001 55.999 125 125 125zM651.25 406.25h-312.5v-125c0 -86.2266 70.0234 -156.25 156.25 -156.25
s156.25 70.0234 156.25 156.25v125z" />
</symbol>

<symbol id="icon-shield" viewBox="0 0 30 30" fill="none" stroke="currentColor" stroke-width="1.5">
   <path fill="currentColor"
d="M473.486 90.4209c-49.6924 47.2021 -161.607 130.896 -328.584 128.329c-13.8506 0 -25.6094 9.03027 -29.7031 21.5195c-16.8154 51.2969 -26.0449 106.004 -26.4492 165.939c0 247.529 169.309 455.546 398.444 514.56
c2.19824 0.566406 8.23535 1.89844 15.6064 0.000976562c229.141 -58.9707 398.449 -266.991 398.449 -514.52c0 -57.9707 -9.29297 -113.815 -26.457 -166.043c-4.10059 -12.4775 -15.8525 -21.498 -29.6953 -21.498h-6.34766
c-124.883 0 -238.281 -48.7559 -322.268 -128.317c-12.0664 -11.4307 -30.9463 -11.417 -42.9961 0.0292969zM392.093 509.157c-19.6221 -19.6221 -53.3428 -5.57422 -53.3428 22.0928c0 8.62402 3.50098 16.4365 9.15723 22.0928l93.75 93.75
c13.6621 13.6621 36.3047 11.7695 47.5391 -3.95801l156.25 -218.75c14.6914 -20.5684 -0.113281 -49.3848 -25.4463 -49.3848c-10.4883 0 -19.7764 5.17773 -25.4463 13.1152l-134.793 188.71zM168.177 281.049c124.495 -3.73633 238.244 -50.5176 326.851 -125.984
c88.6514 75.3135 202.322 121.988 326.796 125.881c69.3486 250.778 -78.9316 508.805 -326.82 577.21c-247.666 -68.3887 -396.061 -325.976 -326.826 -577.106z" />
</symbol>

<symbol id="icon-users" viewBox="0 0 30 30" fill="none" stroke="currentColor" stroke-width="1.5">
   <path fill="currentColor"
d="M813.75 359.375c0 46.627 -37.748 84.375 -84.375 84.375s-84.375 -37.748 -84.375 -84.375s37.748 -84.375 84.375 -84.375s84.375 37.748 84.375 84.375zM863.75 359.375c0 -74.2061 -60.1689 -134.375 -134.375 -134.375s-134.375 60.1689 -134.375 134.375
s60.1689 134.375 134.375 134.375s134.375 -60.1689 134.375 -134.375zM470 265.625c0 63.8789 -51.7461 115.625 -115.625 115.625s-115.625 -51.7461 -115.625 -115.625s51.7461 -115.625 115.625 -115.625s115.625 51.7461 115.625 115.625zM520 265.625
c0 -91.46 -74.165 -165.625 -165.625 -165.625s-165.625 74.165 -165.625 165.625s74.165 165.625 165.625 165.625s165.625 -74.165 165.625 -165.625zM113.942 787.159c5.0957 -128.415 110.765 -230.909 240.433 -230.909c129.663 0 235.342 102.599 240.433 230.909
c-71.0439 40.0176 -153.079 62.8408 -240.433 62.8408s-169.389 -22.8232 -240.433 -62.8408zM875.996 756.909c-43.7881 19.2021 -128.602 45.2188 -231.627 20.6592c-2.47852 -37.792 -12.1797 -73.6064 -27.748 -106.079
c26.9541 -32.2344 67.4502 -52.7393 112.754 -52.7393c78.2041 0 142.112 61.0879 146.621 138.159zM354.375 506.25c-165.72 0 -293.956 137.359 -290.587 295.724c0.188477 8.86621 5.00293 16.6025 12.124 20.8916c81.3389 48.9805 176.629 77.1348 278.463 77.1348
c100.166 0 194.001 -27.2402 274.455 -74.7461c54.3887 13.5312 164.722 28.1689 283.244 -29.9756c14.1758 -6.95508 14.1758 -20.1338 14.1758 -29.6533c0 -108.714 -88.1611 -196.875 -196.875 -196.875c-54.4688 0 -103.781 22.1348 -139.439 57.9023
c-52.8018 -72.9482 -138.653 -120.402 -235.561 -120.402z" />
</symbol>

<symbol id="icon-folder" viewBox="0 0 30 30" fill="none" stroke="currentColor" stroke-width="1.5">
   <path fill="currentColor"
d="M165.605 431.25h658.789c41.8711 0 73.9766 37.0898 68.0586 78.4316l-35.71 250.007c-4.85742 33.9512 -33.835 59.0615 -68.0586 59.0615h-587.369c-34.2656 0 -63.2266 -25.1191 -68.0566 -59.0498c-36.4473 -254.929 -36.4473 -254.929 -36.4473 -259.857
c0 -33.7061 24.9199 -62.6992 58.2109 -67.8018c0 -0.106445 5.45215 -0.791016 10.583 -0.791016zM863.75 375c0 -65.5869 -53.2051 -118.75 -118.75 -118.75h-161.621c-9.90332 0 -19.5215 -3.99023 -26.499 -10.9688l-88.4111 -88.4111
c-16.46 -16.46 -38.6133 -25.6201 -61.8477 -25.6201h-161.621c-65.5791 0 -118.75 53.1709 -118.75 118.75v137.894c-51.9844 18.2168 -86.4453 71.2676 -78.2305 128.919l35.7402 249.984c8.32031 58.4521 58.4609 101.953 117.556 101.953h587.369
c59.0713 0 109.195 -43.5088 117.555 -101.941l35.708 -249.992c8.24512 -57.6074 -26.1768 -110.692 -78.1973 -128.923v-12.8936zM906.239 766.809v0v0zM176.25 381.25v-131.25c0 -38.002 30.748 -68.75 68.75 -68.75h161.621c9.90332 0 19.5215 3.99023 26.499 10.9688
l88.4111 88.4111c16.46 16.46 38.6133 25.6201 61.8477 25.6201h161.621c37.9707 0 68.75 30.7559 68.75 68.75v6.25h-637.5z" />
</symbol>

<symbol id="icon-house" viewBox="0 0 30 30" fill="none" stroke="currentColor" stroke-width="1.5">
       <path fill="currentColor"
d="M71.0762 482.326c-15.6982 15.6973 -4.45996 42.6738 17.6738 42.6738c6.89941 0 13.1494 -2.80078 17.6738 -7.32617l51.0762 -51.0752v361.526c0 39.6738 32.2012 71.875 71.875 71.875h531.25c39.6738 0 71.875 -32.2012 71.875 -71.875v-361.526l51.0762 51.0752
c15.6973 15.6982 42.6738 4.45996 42.6738 -17.6738c0 -6.89941 -2.80078 -13.1494 -7.32617 -17.6738l-373.111 -373.112c-28.0615 -28.0605 -73.5615 -28.0635 -101.625 0zM376.25 850h-146.875c-12.084 0 -21.875 -9.79102 -21.875 -21.875v-411.526l272.036 -272.036
c8.52637 -8.52637 22.4014 -8.52734 30.9277 0l272.036 272.036v411.526c0 12.084 -9.79102 21.875 -21.875 21.875h-146.875v-178.125c0 -39.6738 -32.2012 -71.875 -71.875 -71.875h-93.75c-39.6738 0 -71.875 32.2012 -71.875 71.875v178.125zM563.75 850h-137.5
v-178.125c0 -12.084 9.79102 -21.875 21.875 -21.875h93.75c12.084 0 21.875 9.79102 21.875 21.875v178.125z" />
</symbol>

<symbol id="icon-no-line-arrow" viewBox="0 0 30 30" fill="none" stroke="currentColor" stroke-width="1.5">
    <path fill="currentColor"
    d="M356.424 169.826c-15.6973 -15.6982 -42.6738 -4.45996 -42.6738 17.6738c0 6.89941 2.80078 13.1494 7.32617 17.6738l294.825 294.826l-294.825 294.826c-15.6982 15.6973 -4.45996 42.6738 17.6738 42.6738c6.89941 0 13.1494 -2.80078 17.6738 -7.32617l312.5 -312.5
    c9.76758 -9.7666 9.76758 -25.5811 0 -35.3477z" />
</symbol>

<symbol id="icon-warning" viewBox="0 0 30 30" fill="none" stroke="currentColor" stroke-width="1.5">
    <path fill="currentColor"
    d="M495.293 631.25c-13.1738 0 -25.293 10.1357 -25.293 25.3252c0 13 10.2598 25 25.293 25c12.9043 0 25 -10.1504 25 -25.3252c0 -13.7979 -11.2021 -25 -25 -25zM435.453 153.221c26.4824 -45.9141 92.5781 -45.9141 119.06 -0.00195312l306.447 531.155
    c26.6328 46.1514 -6.81152 103.126 -59.5469 103.126h-612.858c-52.7002 0 -86.1475 -56.9746 -59.5156 -103.124zM85.7012 659.438c-45.5049 78.8516 11.2842 178.062 102.854 178.062h612.858c91.5986 0 148.391 -99.209 102.888 -178.059l-306.444 -531.15
    c-45.6533 -79.1523 -160.092 -79.1523 -205.745 -0.000976562zM520 375c0 -13.7979 -11.2021 -25 -25 -25s-25 11.2021 -25 25v156.25c0 13.7979 11.2021 25 25 25s25 -11.2021 25 -25v-156.25z" />
</symbol>

<symbol id="icon-lens" viewBox="0 0 30 30" fill="none" stroke="currentColor" stroke-width="1.5">
    <path fill="currentColor"
    d="M847.907 897.093c19.6221 19.6221 53.3428 5.57422 53.3428 -22.0928c0 -8.62402 -3.50098 -16.4365 -9.15723 -22.0928l-195.426 -195.426c49.6748 -59.6182 79.583 -136.311 79.583 -219.981c0 -189.846 -153.904 -343.75 -343.75 -343.75
    s-343.75 153.904 -343.75 343.75s153.904 343.75 343.75 343.75c83.6631 0 160.361 -29.915 219.98 -79.584zM713.75 437.5c0 155.15 -125.704 281.25 -281.25 281.25c-155.369 0 -281.25 -125.881 -281.25 -281.25s125.881 -281.25 281.25 -281.25
    s281.25 125.881 281.25 281.25z" />
</symbol>

<symbol id="icon-up-right-arrow" viewBox="0 0 30 30" fill="none" stroke="currentColor" stroke-width="1.5">
    <path fill="currentColor"
    d="M160.403 834.597c-12.2041 -12.2031 -12.2041 -31.9902 0 -44.1934l571.653 -571.653h-393.307c-17.2588 0 -31.25 -13.9912 -31.25 -31.25s13.9912 -31.25 31.25 -31.25h468.75c17.2598 0 31.25 13.9912 31.25 31.25v468.75c0 17.2598 -13.9902 31.25 -31.25 31.25
    s-31.25 -13.9902 -31.25 -31.25v-393.306l-571.653 571.652c-12.2031 12.2031 -31.9902 12.2031 -44.1934 0z" />
</symbol>

<symbol id="icon-maps" viewBox="0 0 30 30" fill="none" stroke="currentColor" stroke-width="1.5">
    <path fill="currentColor"
    d="M595 437.5c0 55.2529 -44.7471 100 -100 100s-100 -44.7471 -100 -100s44.7471 -100 100 -100s100 44.7471 100 100zM645 437.5c0 -82.833 -67.167 -150 -150 -150s-150 67.167 -150 150s67.167 150 150 150s150 -67.167 150 -150zM495 877.276
    c-50.1318 -30.627 -287.5 -188.893 -287.5 -439.776c0 -158.8 128.7 -287.5 287.5 -287.5s287.5 128.7 287.5 287.5c0 250.878 -237.356 409.142 -287.5 439.776zM832.5 437.5c0 -186.383 -151.117 -337.5 -337.5 -337.5s-337.5 151.117 -337.5 337.5
    c0 299.896 298.694 476.001 325.517 490.692c2.56543 1.4043 12.7471 6.14453 23.9668 0c26.627 -14.584 325.517 -190.694 325.517 -490.692z" />
</symbol>

<symbol id="icon-bell" viewBox="0 0 30 30" fill="none" stroke="currentColor" stroke-width="1.5">
    <path fill="currentColor"
    d="M594.396 738.999c6.53613 59.165 -39.7881 111.001 -99.3955 111.001c-59.4219 0 -105.889 -51.5293 -99.4043 -110.999c43.4453 4.1748 113.645 8.18164 198.8 -0.00195312zM799.271 645.334c-54.209 17.7939 -305.812 99.373 -608.576 -0.000976562
    c49.8018 -66.6963 79.2725 -149.46 79.2725 -239.083v-31.2236c0 -124.296 100.736 -225.026 225.032 -225.026c124.264 0 225 100.707 224.996 225.854v30.3965c0 89.6279 29.4697 172.391 79.2754 239.084zM495 900c89.4688 0 159.15 -77.9756 149.04 -167.001
    c71.2891 -10.3916 140.173 -28.1074 205.898 -52.377c16.4766 -6.08398 21.7881 -27.0205 9.92676 -40.1846c-55.8662 -62.0029 -89.8975 -144.125 -89.8975 -234.188c0 0 -0.0292969 -27.9922 0.0322266 -31.25c0 -151.879 -123.157 -275 -275 -275
    c-151.876 0 -275 123.098 -275 274.974c0 0.0263672 -0.0322266 31.2764 -0.0322266 31.2764c0 90.0693 -34.0029 172.188 -89.8652 234.188c-11.8613 13.1641 -6.5498 34.1006 9.92578 40.1846c65.7334 24.2725 134.646 41.9883 205.922 52.3789
    c-10.0576 89.3262 59.7715 166.999 149.05 166.999z" />
</symbol>


<symbol id="icon-phone" viewBox="0 0 30 30" fill="none" stroke="currentColor" stroke-width="1.5">
    <path fill="currentColor"
    d="M113.75 281.25v-93.75c0 -38.002 30.748 -68.75 68.75 -68.75h57.1611c10.0186 0 18.7627 6.80469 21.2266 16.6152l46.0547 184.25c0.405273 1.61914 3.16699 14.377 -8.07324 22.8076l-53.9062 40.4297c-17.7217 13.291 -28.4131 33.8564 -28.4131 55.9219
    c0 7.73828 1.33203 15.5283 4.09375 23.0518c52.9795 144.688 167.86 259.557 312.547 312.537c28.126 10.3223 60.1787 0.711914 78.957 -24.3262l40.4297 -53.9062c0.982422 -1.30957 9.13867 -11.4961 22.7969 -8.07617c0 0 184.261 46.0576 184.288 46.0645
    c9.81152 2.46387 16.5879 11.2012 16.5879 21.2197v57.1611c0 38.002 -30.748 68.75 -68.75 68.75h-93.75c-331.391 0 -600 -268.609 -600 -600zM63.75 281.25c0 358.974 291.026 650 650 650h93.75c65.5791 0 118.75 -53.1709 118.75 -118.75v-57.1611
    c0 -32.9512 -22.5205 -61.7139 -54.4414 -69.7314c0.0283203 0.00683594 -184.266 -46.0586 -184.266 -46.0586c-5.66406 -1.41797 -47.2861 -10.3145 -74.9902 26.625l-40.4297 53.9062c-4.65625 6.20898 -13.2842 10.4258 -21.7588 7.31445
    c-130.899 -47.9307 -234.834 -151.877 -282.766 -282.775c-3.08594 -8.4082 1.06836 -17.0527 7.32129 -21.7422l53.9062 -40.4297c18.4277 -13.8203 28.7812 -35.1826 28.7812 -57.499c0 -5.85352 -0.707031 -11.7051 -2.15332 -17.4795l-46.0684 -184.306
    c-8.01758 -31.9209 -36.7734 -54.4131 -69.7246 -54.4131h-57.1611c-65.5791 0 -118.75 53.1709 -118.75 118.75v93.75z" />
</symbol>

<symbol id="icon-plus" viewBox="0 0 30 30" fill="none" stroke="currentColor" stroke-width="1.5">
    <path fill="currentColor"
    d="M807.5 525c13.7979 0 25 -11.2021 25 -25s-11.2021 -25 -25 -25h-287.5v-287.5c0 -13.7979 -11.2021 -25 -25 -25s-25 11.2021 -25 25v287.5h-287.5c-13.7979 0 -25 11.2021 -25 25s11.2021 25 25 25h287.5v287.5c0 13.7979 11.2021 25 25 25s25 -11.2021 25 -25v-287.5
    h287.5z" />
</symbol>

<symbol id="icon-check-circle" viewBox="0 0 30 30" fill="none" stroke="currentColor" stroke-width="1.5">
    <path fill="currentColor"
    d="M845 500c0 193.305 -156.695 350 -350 350s-350 -156.695 -350 -350s156.695 -350 350 -350s350 156.695 350 350zM895 500c0 -220.888 -179.112 -400 -400 -400s-400 179.112 -400 400s179.112 400 400 400s400 -179.112 400 -400zM387.674 513.576
    c-15.6973 -15.6982 -42.6738 -4.45996 -42.6738 17.6738c0 6.89941 2.80078 13.1494 7.32617 17.6738l93.75 93.75c10.9297 10.9297 29.0439 9.41602 38.0303 -3.16602l156.25 -218.75c11.7539 -16.4551 -0.0898438 -39.5078 -20.3564 -39.5078
    c-8.39062 0 -15.8213 4.14258 -20.3564 10.4922l-139.085 194.718z" />
</symbol>

<symbol id="icon-cross-circle" viewBox="0 0 30 30" fill="none" stroke="currentColor" stroke-width="1.5">
    <path fill="currentColor"
    d="M845 500c0 193.305 -156.695 350 -350 350s-350 -156.695 -350 -350s156.695 -350 350 -350s350 156.695 350 350zM895 500c0 -220.888 -179.112 -400 -400 -400s-400 179.112 -400 400s179.112 400 400 400s400 -179.112 400 -400zM606.424 423.924
    c15.6982 -15.6973 4.45996 -42.6738 -17.6738 -42.6738c-6.89941 0 -13.1494 2.80078 -17.6738 7.32617l-76.0762 76.0752l-76.0762 -76.0752c-15.6973 -15.6982 -42.6738 -4.45996 -42.6738 17.6738c0 6.89941 2.80078 13.1494 7.32617 17.6738l76.0752 76.0762
    l-76.0752 76.0762c-15.6982 15.6973 -4.45996 42.6738 17.6738 42.6738c6.89941 0 13.1494 -2.80078 17.6738 -7.32617l76.0762 -76.0752l76.0762 76.0752c15.6973 15.6982 42.6738 4.45996 42.6738 -17.6738c0 -6.89941 -2.80078 -13.1494 -7.32617 -17.6738
    l-76.0752 -76.0762z" />
</symbol>

<symbol id="icon-squere-pen" viewBox="0 0 30 30" fill="none" stroke="currentColor" stroke-width="1.5">
    <path fill="currentColor"
    d="M776.25 583.333c0 -17.2471 -14.0029 -31.25 -31.25 -31.25s-31.25 14.0029 -31.25 31.25v197.917c0 34.5146 -27.9854 62.5 -62.5 62.5h-437.5c-34.5146 0 -62.5 -27.9854 -62.5 -62.5v-437.5c0 -34.5146 27.9854 -62.5 62.5 -62.5h197.917
    c17.2471 0 31.25 -14.0029 31.25 -31.25s-14.0029 -31.25 -31.25 -31.25h-197.917c-69.001 0 -125 55.999 -125 125v437.5c0 69.001 55.999 125 125 125h437.5c69.001 0 125 -55.999 125 -125v-197.917zM697.557 231.117l66.3232 66.3232l-350.054 350.021
    c-18.3027 18.3027 -40.9512 31.8164 -65.9062 39.2617l-56.4668 16.8232c8.38477 -28.1436 16.8252 -56.4727 16.8271 -56.4785c7.45312 -24.9805 20.9229 -47.5928 39.2363 -65.873zM789.961 138.711c29.2754 -29.2373 80.0293 -8.62207 80.0293 33.1641
    c0 12.0391 -4.5918 24.043 -13.7158 33.1797l-48.207 48.2021l-66.3262 -66.3262c20.6123 -20.6133 48.21 -48.2109 48.2197 -48.2197zM745.775 94.5254v0v0zM932.49 171.875c0 -60.3047 -48.8232 -109.365 -109.365 -109.365c-27.959 0 -55.9688 10.6621 -77.3496 32.0156
    l-442.403 442.443c-25.7939 25.7471 -44.6465 57.4922 -55.002 92.249l-33.3252 111.856c-7.0625 23.707 15.1641 45.9463 38.8809 38.8809l111.868 -33.3291c34.7783 -10.377 66.4922 -29.2529 92.2158 -54.9766l442.48 -442.439c21.3525 -21.3809 32 -49.376 32 -77.335z
    " />
</symbol>

<symbol id="icon-user" viewBox="0 0 30 30" fill="none" stroke="currentColor" stroke-width="1.5">
    <path d="M19.6871 7.5C19.6871 10.0888 17.5884 12.1875 14.9996 12.1875C12.4107 12.1875 10.3121 10.0888 10.3121 7.5C10.3121 4.91117 12.4107 2.8125 14.9996 2.8125C17.5884 2.8125 19.6871 4.91117 19.6871 7.5Z" stroke="#000000" stroke-width="1.5" stroke-linecap="round" stroke-linejoin="round"/>
    <path d="M5.62598 25.1478C5.71386 20.0461 9.8769 15.9375 14.9996 15.9375C20.1223 15.9375 24.2855 20.0463 24.3731 25.1482C21.5197 26.4575 18.3451 27.1875 15 27.1875C11.6546 27.1875 8.47968 26.4574 5.62598 25.1478Z" stroke="#000000" stroke-width="1.5" stroke-linecap="round" stroke-linejoin="round"/>
</symbol>

<symbol id="icon-calendar" viewBox="0 0 30 30" fill="none" stroke="currentColor" stroke-width="1.5">
    <path d="M8.4375 3.75V6.5625M21.5625 3.75V6.5625M3.75 23.4375V9.375C3.75 7.8217 5.0092 6.5625 6.5625 6.5625H23.4375C24.9908 6.5625 26.25 7.8217 26.25 9.375V23.4375M3.75 23.4375C3.75 24.9908 5.0092 26.25 6.5625 26.25H23.4375C24.9908 26.25 26.25 24.9908 26.25 23.4375M3.75 23.4375V14.0625C3.75 12.5092 5.0092 11.25 6.5625 11.25H23.4375C24.9908 11.25 26.25 12.5092 26.25 14.0625V23.4375" stroke="#000000" stroke-width="1.5" stroke-linecap="round" stroke-linejoin="round"/>
</symbol>

<symbol id="icon-knife" viewBox="0 0 30 30" fill="none" stroke="currentColor" stroke-width="1.5">
<path d="M1 1V11.5C1 13.15 2.49999 14.5 4.33332 14.5H11C11.884 14.5 12.7319 14.1839 13.357 13.6213C13.9821 13.0587 14.3333 12.2956 14.3333 11.5V1" stroke="#000000" stroke-width="1.5" stroke-linecap="round" stroke-linejoin="round"/>
<path d="M7.66602 1V31" stroke="#000000" stroke-width="1.5" stroke-linecap="round" stroke-linejoin="round"/>
<path d="M31.0003 20.5V1C28.7902 1 26.6706 1.79018 25.1078 3.1967C23.545 4.60322 22.667 6.51088 22.667 8.5V17.5C22.667 19.15 24.167 20.5 26.0003 20.5H31.0003ZM31.0003 20.5V31" stroke="#000000" stroke-width="1.5" stroke-linecap="round" stroke-linejoin="round"/>
</symbol>

<symbol id="icon-3-users" viewBox="0 0 30 30" fill="none" stroke="currentColor" stroke-width="1.5">
<path d="M22.5 23.3989C22.8094 23.4245 23.1223 23.4375 23.4383 23.4375C24.7487 23.4375 26.0068 23.2135 27.1763 22.8016C27.1842 22.7021 27.1883 22.6015 27.1883 22.5C27.1883 20.4289 25.5093 18.75 23.4383 18.75C22.6538 18.75 21.9255 18.9909 21.3235 19.4028M22.5 23.3989C22.5 23.4118 22.5001 23.4246 22.5001 23.4375C22.5001 23.7187 22.4846 23.9964 22.4544 24.2696C20.2585 25.5296 17.7134 26.25 15.0001 26.25C12.2867 26.25 9.74165 25.5296 7.54569 24.2696C7.51554 23.9964 7.50006 23.7187 7.50006 23.4375C7.50006 23.4247 7.50009 23.4119 7.50016 23.3991M22.5 23.3989C22.4926 21.9282 22.0619 20.5577 21.3235 19.4028M21.3235 19.4028C19.9911 17.319 17.6569 15.9375 15.0001 15.9375C12.3436 15.9375 10.0096 17.3186 8.67717 19.402M8.67717 19.402C8.07535 18.9906 7.34751 18.75 6.56348 18.75C4.49241 18.75 2.81348 20.4289 2.81348 22.5C2.81348 22.6015 2.81751 22.7021 2.82543 22.8016C3.99497 23.2135 5.25306 23.4375 6.56348 23.4375C6.8789 23.4375 7.1913 23.4245 7.50016 23.3991M8.67717 19.402C7.93844 20.5571 7.50754 21.928 7.50016 23.3991M18.7501 8.4375C18.7501 10.5086 17.0711 12.1875 15.0001 12.1875C12.929 12.1875 11.2501 10.5086 11.2501 8.4375C11.2501 6.36643 12.929 4.6875 15.0001 4.6875C17.0711 4.6875 18.7501 6.36643 18.7501 8.4375ZM26.2501 12.1875C26.2501 13.7408 24.9909 15 23.4376 15C21.8843 15 20.6251 13.7408 20.6251 12.1875C20.6251 10.6342 21.8843 9.375 23.4376 9.375C24.9909 9.375 26.2501 10.6342 26.2501 12.1875ZM9.37506 12.1875C9.37506 13.7408 8.11586 15 6.56256 15C5.00926 15 3.75006 13.7408 3.75006 12.1875C3.75006 10.6342 5.00926 9.375 6.56256 9.375C8.11586 9.375 9.37506 10.6342 9.37506 12.1875Z" stroke="#000000" stroke-width="1.5" stroke-linecap="round" stroke-linejoin="round"/>
</symbol>

<symbol id="icon-settings" viewBox="0 0 30 30" fill="none" stroke="currentColor" stroke-width="1.5">
<path d="M27.1875 8.4375C27.1875 11.5441 24.6691 14.0625 21.5625 14.0625C21.4008 14.0625 21.2406 14.0557 21.0824 14.0423C19.7381 13.9287 18.252 14.1315 17.3944 15.1729L8.4554 26.0274C7.85046 26.7619 6.94871 27.1875 5.99711 27.1875C4.2383 27.1875 2.8125 25.7617 2.8125 24.0029C2.8125 23.0513 3.23806 22.1495 3.97263 21.5446L14.8271 12.6057C15.8685 11.748 16.0713 10.2619 15.9577 8.91764C15.9443 8.75937 15.9375 8.59923 15.9375 8.4375C15.9375 5.3309 18.4559 2.8125 21.5625 2.8125C22.3879 2.8125 23.1718 2.99029 23.878 3.30967L19.7827 7.40496C20.1029 8.79954 21.2006 9.89732 22.5952 10.2175L26.6904 6.12224C27.0097 6.82835 27.1875 7.61216 27.1875 8.4375Z" stroke="black" stroke-width="1.5" stroke-linecap="round" stroke-linejoin="round"/>
<path d="M6.08404 23.9063H6.09342V23.9157H6.08404V23.9063Z" stroke="black" stroke-width="1.5" stroke-linecap="round" stroke-linejoin="round"/>
</symbol>

<symbol id="icon-clip" viewBox="0 0 30 30" fill="none" stroke="currentColor" stroke-width="1.5">
<path d="M22.9687 15.9237L13.3525 25.54C11.1558 27.7367 7.59422 27.7367 5.39752 25.54C3.20083 23.3433 3.20082 19.7817 5.39752 17.585L19.0716 3.91085C20.5361 2.44638 22.9104 2.44638 24.3749 3.91085C25.8394 5.37532 25.8394 7.74968 24.3749 9.21415L10.6895 22.8996M10.7008 22.8883C10.6971 22.8921 10.6933 22.8958 10.6895 22.8996M17.8123 10.4733L8.04918 20.2367C7.31694 20.9689 7.31694 22.1561 8.04918 22.8883C8.77764 23.6168 9.95638 23.6205 10.6895 22.8996" stroke="black" stroke-width="1.5" stroke-linecap="round" stroke-linejoin="round"/>
</symbol>

<symbol id="icon-eye" viewBox="0 0 30 30" fill="none" stroke="currentColor" stroke-width="1.5">
<path d="M2.54432 15.403C2.45796 15.1439 2.45788 14.8634 2.54408 14.6043C4.27954 9.38715 9.20086 5.625 15.0009 5.625C20.7982 5.625 25.7177 9.38366 27.4553 14.597C27.5416 14.8561 27.5417 15.1366 27.4555 15.3957C25.7201 20.6128 20.7987 24.375 14.9987 24.375C9.20137 24.375 4.28193 20.6163 2.54432 15.403Z" stroke="black" stroke-width="1.5" stroke-linecap="round" stroke-linejoin="round"/>
<path d="M18.7499 15C18.7499 17.0711 17.0709 18.75 14.9999 18.75C12.9288 18.75 11.2499 17.0711 11.2499 15C11.2499 12.9289 12.9288 11.25 14.9999 11.25C17.0709 11.25 18.7499 12.9289 18.7499 15Z" stroke="black" stroke-width="1.5" stroke-linecap="round" stroke-linejoin="round"/>
</symbol>
</svg>