<svg xmlns="http://www.w3.org/2000/svg" style="display: none;">

<symbol id="icon-center" viewBox="0 0 24 24" fill="none" stroke="currentColor" stroke-width="1.5">
  <path stroke-linecap="round" stroke-linejoin="round" d="M2.25 21h19.5m-18-18v18m10.5-18v18m6-13.5V21M6.75 6.75h.75m-.75 3h.75m-.75 3h.75m3-6h.75m-.75 3h.75m-.75 3h.75M6.75 21v-3.375c0-.621.504-1.125 1.125-1.125h2.25c.621 0 1.125.504 1.125 1.125V21M3 3h12m-.75 4.5H21m-3.75 3.75h.008v.008h-.008v-.008Zm0 3h.008v.008h-.008v-.008Zm0 3h.008v.008h-.008v-.008Z" />

</symbol>

<symbol id="icon-mail" viewBox="0 0 24 24" fill="none" stroke="currentColor" stroke-width="1.5">
  <path stroke-linecap="round" stroke-linejoin="round" d="M21.75 6.75v10.5a2.25 2.25 0 0 1-2.25 2.25h-15a2.25 2.25 0 0 1-2.25-2.25V6.75m19.5 0A2.25 2.25 0 0 0 19.5 4.5h-15a2.25 2.25 0 0 0-2.25 2.25m19.5 0v.243a2.25 2.25 0 0 1-1.07 1.916l-7.5 4.615a2.25 2.25 0 0 1-2.36 0L3.32 8.91a2.25 2.25 0 0 1-1.07-1.916V6.75" />


</symbol>

<symbol id="icon-lock" viewBox="0 0 24 24" fill="none" stroke="currentColor" stroke-width="1.5">
  <path stroke-linecap="round" stroke-linejoin="round" d="M16.5 10.5V6.75a4.5 4.5 0 1 0-9 0v3.75m-.75 11.25h10.5a2.25 2.25 0 0 0 2.25-2.25v-6.75a2.25 2.25 0 0 0-2.25-2.25H6.75a2.25 2.25 0 0 0-2.25 2.25v6.75a2.25 2.25 0 0 0 2.25 2.25Z" />
</symbol>

<symbol id="icon-shield" viewBox="0 0 24 24" fill="none" stroke="currentColor" stroke-width="1.5">
  <path stroke-linecap="round" stroke-linejoin="round" d="M9 12.75 11.25 15 15 9.75m-3-7.036A11.959 11.959 0 0 1 3.598 6 11.99 11.99 0 0 0 3 9.749c0 5.592 3.824 10.29 9 11.623 5.176-1.332 9-6.03 9-11.622 0-1.31-.21-2.571-.598-3.751h-.152c-3.196 0-6.1-1.248-8.25-3.285Z" />
</symbol>

<symbol id="icon-users" viewBox="0 0 24 24" fill="none" stroke="currentColor" stroke-width="1.5">
  <path stroke-linecap="round" stroke-linejoin="round" d="M15 19.128a9.38 9.38 0 0 0 2.625.372 9.337 9.337 0 0 0 4.121-.952 4.125 4.125 0 0 0-7.533-2.493M15 19.128v-.003c0-1.113-.285-2.16-.786-3.07M15 19.128v.106A12.318 12.318 0 0 1 8.624 21c-2.331 0-4.512-.645-6.374-1.766l-.001-.109a6.375 6.375 0 0 1 11.964-3.07M12 6.375a3.375 3.375 0 1 1-6.75 0 3.375 3.375 0 0 1 6.75 0Zm8.25 2.25a2.625 2.625 0 1 1-5.25 0 2.625 2.625 0 0 1 5.25 0Z" />

</symbol>

<symbol id="icon-folder" viewBox="0 0 24 24" fill="none" stroke="currentColor" stroke-width="1.5">
  <path stroke-linecap="round" stroke-linejoin="round" d="M3.75 9.776c.112-.017.227-.026.344-.026h15.812c.117 0 .232.009.344.026m-16.5 0a2.25 2.25 0 0 0-1.883 2.542l.857 6a2.25 2.25 0 0 0 2.227 1.932H19.05a2.25 2.25 0 0 0 2.227-1.932l.857-6a2.25 2.25 0 0 0-1.883-2.542m-16.5 0V6A2.25 2.25 0 0 1 6 3.75h3.879a1.5 1.5 0 0 1 1.06.44l2.122 2.12a1.5 1.5 0 0 0 1.06.44H18A2.25 2.25 0 0 1 20.25 9v.776" />


</symbol>

<symbol id="icon-house" viewBox="0 0 24 24" fill="none" stroke="currentColor" stroke-width="1.5">
  <path stroke-linecap="round" stroke-linejoin="round" d="m2.25 12 8.954-8.955c.44-.439 1.152-.439 1.591 0L21.75 12M4.5 9.75v10.125c0 .621.504 1.125 1.125 1.125H9.75v-4.875c0-.621.504-1.125 1.125-1.125h2.25c.621 0 1.125.504 1.125 1.125V21h4.125c.621 0 1.125-.504 1.125-1.125V9.75M8.25 21h8.25" />
</symbol>

<symbol id="icon-no-line-arrow" viewBox="0 0 24 24" fill="none" stroke="currentColor" stroke-width="1.5">
  <path stroke-linecap="round" stroke-linejoin="round" d="m8.25 4.5 7.5 7.5-7.5 7.5" />
</symbol>

<symbol id="icon-warning" viewBox="0 0 24 24" fill="none" stroke="currentColor" stroke-width="1.5">
  <path stroke-linecap="round" stroke-linejoin="round" d="M12 9v3.75m-9.303 3.376c-.866 1.5.217 3.374 1.948 3.374h14.71c1.73 0 2.813-1.874 1.948-3.374L13.949 3.378c-.866-1.5-3.032-1.5-3.898 0L2.697 16.126ZM12 15.75h.007v.008H12v-.008Z" />


</symbol>

<symbol id="icon-lens" viewBox="0 0 24 24" fill="none" stroke="currentColor" stroke-width="1.5">
  <path stroke-linecap="round" stroke-linejoin="round" d="m21 21-5.197-5.197m0 0A7.5 7.5 0 1 0 5.196 5.196a7.5 7.5 0 0 0 10.607 10.607Z" />

</symbol>

<symbol id="icon-up-right-arrow" viewBox="0 0 24 24" fill="none" stroke="currentColor" stroke-width="1.5">
  <path stroke-linecap="round" stroke-linejoin="round" d="m4.5 19.5 15-15m0 0H8.25m11.25 0v11.25" />


</symbol>

<symbol id="icon-maps" viewBox="0 0 24 24" fill="none" stroke="currentColor" stroke-width="1.5">
  <path stroke-linecap="round" stroke-linejoin="round" d="M15 10.5a3 3 0 1 1-6 0 3 3 0 0 1 6 0Z" />
  <path stroke-linecap="round" stroke-linejoin="round" d="M19.5 10.5c0 7.142-7.5 11.25-7.5 11.25S4.5 17.642 4.5 10.5a7.5 7.5 0 1 1 15 0Z" />


</symbol>

<symbol id="icon-bell" viewBox="0 0 24 24" fill="none" stroke="currentColor" stroke-width="1.5">
  <path stroke-linecap="round" stroke-linejoin="round" d="M14.857 17.082a23.848 23.848 0 0 0 5.454-1.31A8.967 8.967 0 0 1 18 9.75V9A6 6 0 0 0 6 9v.75a8.967 8.967 0 0 1-2.312 6.022c1.733.64 3.56 1.085 5.455 1.31m5.714 0a24.255 24.255 0 0 1-5.714 0m5.714 0a3 3 0 1 1-5.714 0" />

</symbol>


<symbol id="icon-phone" viewBox="0 0 24 24" fill="none" stroke="currentColor" stroke-width="1.5">
  <path stroke-linecap="round" stroke-linejoin="round" d="M2.25 6.75c0 8.284 6.716 15 15 15h2.25a2.25 2.25 0 0 0 2.25-2.25v-1.372c0-.516-.351-.966-.852-1.091l-4.423-1.106c-.44-.11-.902.055-1.173.417l-.97 1.293c-.282.376-.769.542-1.21.38a12.035 12.035 0 0 1-7.143-7.143c-.162-.441.004-.928.38-1.21l1.293-.97c.363-.271.527-.734.417-1.173L6.963 3.102a1.125 1.125 0 0 0-1.091-.852H4.5A2.25 2.25 0 0 0 2.25 4.5v2.25Z" />

</symbol>

<symbol id="icon-plus" viewBox="0 0 24 24" fill="none" stroke="currentColor" stroke-width="1.5">
  <path stroke-linecap="round" stroke-linejoin="round" d="M12 4.5v15m7.5-7.5h-15" />
</symbol>

<symbol id="icon-check-circle" viewBox="0 0 24 24" fill="none" stroke="currentColor" stroke-width="1.5">
  <path stroke-linecap="round" stroke-linejoin="round" d="M9 12.75 11.25 15 15 9.75M21 12a9 9 0 1 1-18 0 9 9 0 0 1 18 0Z" />
</symbol>

<symbol id="icon-cross-circle" viewBox="0 0 24 24" fill="none" stroke="currentColor" stroke-width="1.5">
  <path stroke-linecap="round" stroke-linejoin="round" d="m9.75 9.75 4.5 4.5m0-4.5-4.5 4.5M21 12a9 9 0 1 1-18 0 9 9 0 0 1 18 0Z" />
</symbol>

<symbol id="icon-square-pen" viewBox="0 0 24 24" fill="none" stroke="currentColor" stroke-width="1.5">
  <path stroke-linecap="round" stroke-linejoin="round" d="m16.862 4.487 1.687-1.688a1.875 1.875 0 1 1 2.652 2.652L10.582 16.07a4.5 4.5 0 0 1-1.897 1.13L6 18l.8-2.685a4.5 4.5 0 0 1 1.13-1.897l8.932-8.931Zm0 0L19.5 7.125M18 14v4.75A2.25 2.25 0 0 1 15.75 21H5.25A2.25 2.25 0 0 1 3 18.75V8.25A2.25 2.25 0 0 1 5.25 6H10" />
</symbol>

<symbol id="icon-user" viewBox="0 0 24 24" fill="none" stroke="currentColor" stroke-width="1.5">
  <path stroke-linecap="round" stroke-linejoin="round" d="M15.75 6a3.75 3.75 0 1 1-7.5 0 3.75 3.75 0 0 1 7.5 0ZM4.501 20.118a7.5 7.5 0 0 1 14.998 0A17.933 17.933 0 0 1 12 21.75c-2.676 0-5.216-.584-7.499-1.632Z" />
</symbol>

<symbol id="icon-calendar" viewBox="0 0 24 24" fill="none" stroke="currentColor" stroke-width="1.5">
  <path stroke-linecap="round" stroke-linejoin="round" d="M6.75 3v2.25M17.25 3v2.25M3 18.75V7.5a2.25 2.25 0 0 1 2.25-2.25h13.5A2.25 2.25 0 0 1 21 7.5v11.25m-18 0A2.25 2.25 0 0 0 5.25 21h13.5A2.25 2.25 0 0 0 21 18.75m-18 0v-7.5A2.25 2.25 0 0 1 5.25 9h13.5A2.25 2.25 0 0 1 21 11.25v7.5" />

</symbol>

<symbol id="icon-knife" viewBox="0 0 24 24" fill="none" stroke="currentColor" stroke-width="1.5">
    <path d="M3 2v7c0 1.1.9 2 2 2h4a2 2 0 0 0 2-2V2"></path>
    <path d="M7 2v20"></path>
    <path d="M21 15V2a5 5 0 0 0-5 5v6c0 1.1.9 2 2 2h3Zm0 0v7"></path>
</symbol>

<symbol id="icon-group-user" viewBox="0 0 24 24" fill="none" stroke="currentColor" stroke-width="1.5">
  <path stroke-linecap="round" stroke-linejoin="round" d="M18 18.72a9.094 9.094 0 0 0 3.741-.479 3 3 0 0 0-4.682-2.72m.94 3.198.001.031c0 .225-.012.447-.037.666A11.944 11.944 0 0 1 12 21c-2.17 0-4.207-.576-5.963-1.584A6.062 6.062 0 0 1 6 18.719m12 0a5.971 5.971 0 0 0-.941-3.197m0 0A5.995 5.995 0 0 0 12 12.75a5.995 5.995 0 0 0-5.058 2.772m0 0a3 3 0 0 0-4.681 2.72 8.986 8.986 0 0 0 3.74.477m.94-3.197a5.971 5.971 0 0 0-.94 3.197M15 6.75a3 3 0 1 1-6 0 3 3 0 0 1 6 0Zm6 3a2.25 2.25 0 1 1-4.5 0 2.25 2.25 0 0 1 4.5 0Zm-13.5 0a2.25 2.25 0 1 1-4.5 0 2.25 2.25 0 0 1 4.5 0Z" />

</symbol>

<symbol id="icon-settings" viewBox="0 0 24 24" fill="none" stroke="currentColor" stroke-width="1.5">
  <path stroke-linecap="round" stroke-linejoin="round" d="M21.75 6.75a4.5 4.5 0 0 1-4.884 4.484c-1.076-.091-2.264.071-2.95.904l-7.152 8.684a2.548 2.548 0 1 1-3.586-3.586l8.684-7.152c.833-.686.995-1.874.904-2.95a4.5 4.5 0 0 1 6.336-4.486l-3.276 3.276a3.004 3.004 0 0 0 2.25 2.25l3.276-3.276c.256.565.398 1.192.398 1.852Z" />
  <path stroke-linecap="round" stroke-linejoin="round" d="M4.867 19.125h.008v.008h-.008v-.008Z" />

</symbol>

<symbol id="icon-clip" viewBox="0 0 24 24" fill="none" stroke="currentColor" stroke-width="1.5">
  <path stroke-linecap="round" stroke-linejoin="round" d="m18.375 12.739-7.693 7.693a4.5 4.5 0 0 1-6.364-6.364l10.94-10.94A3 3 0 1 1 19.5 7.372L8.552 18.32m.009-.01-.01.01m5.699-9.941-7.81 7.81a1.5 1.5 0 0 0 2.112 2.13" />

</symbol>

<symbol id="icon-eye" viewBox="0 0 24 24" fill="none" stroke="currentColor" stroke-width="1.5">
  <path stroke-linecap="round" stroke-linejoin="round" d="M2.036 12.322a1.012 1.012 0 0 1 0-.639C3.423 7.51 7.36 4.5 12 4.5c4.638 0 8.573 3.007 9.963 7.178.07.207.07.431 0 .639C20.577 16.49 16.64 19.5 12 19.5c-4.638 0-8.573-3.007-9.963-7.178Z" />
  <path stroke-linecap="round" stroke-linejoin="round" d="M15 12a3 3 0 1 1-6 0 3 3 0 0 1 6 0Z" />

</symbol>

<symbol id="icon-power" viewBox="0 0 24 24" fill="none" stroke="currentColor" stroke-width="1.5">
  <path stroke-linecap="round" stroke-linejoin="round" d="M5.636 5.636a9 9 0 1 0 12.728 0M12 3v9" />
</symbol>

<symbol id="icon-user-circle" viewBox="0 0 24 24" fill="none" stroke="currentColor" stroke-width="1.5">
  <path stroke-linecap="round" stroke-linejoin="round" d="M17.982 18.725A7.488 7.488 0 0 0 12 15.75a7.488 7.488 0 0 0-5.982 2.975m11.963 0a9 9 0 1 0-11.963 0m11.963 0A8.966 8.966 0 0 1 12 21a8.966 8.966 0 0 1-5.982-2.275M15 9.75a3 3 0 1 1-6 0 3 3 0 0 1 6 0Z" />
</symbol>

<symbol id="icon-block" viewBox="0 0 24 24" fill="none" stroke="currentColor" stroke-width="1.5">
  <path stroke-linecap="round" stroke-linejoin="round" d="M18.364 18.364A9 9 0 0 0 5.636 5.636m12.728 12.728A9 9 0 0 1 5.636 5.636m12.728 12.728L5.636 5.636" />
</symbol>

<symbol id="icon-wallet" viewBox="0 0 24 24" fill="none" stroke="currentColor" stroke-width="1.5">
  <path stroke-linecap="round" stroke-linejoin="round" d="M21 12a2.25 2.25 0 0 0-2.25-2.25H15a3 3 0 1 1-6 0H5.25A2.25 2.25 0 0 0 3 12m18 0v6a2.25 2.25 0 0 1-2.25 2.25H5.25A2.25 2.25 0 0 1 3 18v-6m18 0V9M3 12V9m18 0a2.25 2.25 0 0 0-2.25-2.25H5.25A2.25 2.25 0 0 0 3 9m18 0V6a2.25 2.25 0 0 0-2.25-2.25H5.25A2.25 2.25 0 0 0 3 6v3" />
</symbol>

<symbol id="icon-key" viewBox="0 0 24 24" fill="none" stroke="currentColor" stroke-width="1.5">
  <path stroke-linecap="round" stroke-linejoin="round" d="M15.75 5.25a3 3 0 0 1 3 3m3 0a6 6 0 0 1-7.029 5.912c-.563-.097-1.159.026-1.563.43L10.5 17.25H8.25v2.25H6v2.25H2.25v-2.818c0-.597.237-1.17.659-1.591l6.499-6.499c.404-.404.527-1 .43-1.563A6 6 0 1 1 21.75 8.25Z" />
</symbol>

<symbol id="icon-chat-2" viewBox="0 0 24 24" fill="none" stroke="currentColor" stroke-width="1.5">
  <path stroke-linecap="round" stroke-linejoin="round" d="M20.25 8.511c.884.284 1.5 1.128 1.5 2.097v4.286c0 1.136-.847 2.1-1.98 2.193-.34.027-.68.052-1.02.072v3.091l-3-3c-1.354 0-2.694-.055-4.02-.163a2.115 2.115 0 0 1-.825-.242m9.345-8.334a2.126 2.126 0 0 0-.476-.095 48.64 48.64 0 0 0-8.048 0c-1.131.094-1.976 1.057-1.976 2.192v4.286c0 .837.46 1.58 1.155 1.951m9.345-8.334V6.637c0-1.621-1.152-3.026-2.76-3.235A48.455 48.455 0 0 0 11.25 3c-2.115 0-4.198.137-6.24.402-1.608.209-2.76 1.614-2.76 3.235v6.226c0 1.621 1.152 3.026 2.76 3.235.577.075 1.157.14 1.74.194V21l4.155-4.155" />
</symbol>

<symbol id="icon-chat-text" viewBox="0 0 24 24" fill="none" stroke="currentColor" stroke-width="1.5">
  <path stroke-linecap="round" stroke-linejoin="round" d="M7.5 8.25h9m-9 3H12m-9.75 1.51c0 1.6 1.123 2.994 2.707 3.227 1.129.166 2.27.293 3.423.379.35.026.67.21.865.501L12 21l2.755-4.133a1.14 1.14 0 0 1 .865-.501 48.172 48.172 0 0 0 3.423-.379c1.584-.233 2.707-1.626 2.707-3.228V6.741c0-1.602-1.123-2.995-2.707-3.228A48.394 48.394 0 0 0 12 3c-2.392 0-4.744.175-7.043.513C3.373 3.746 2.25 5.14 2.25 6.741v6.018Z" />
</symbol>

<symbol id="icon-upload" viewBox="0 0 24 24" fill="none" stroke="currentColor" stroke-width="1.5">
  <path stroke-linecap="round" stroke-linejoin="round" d="M3 16.5v2.25A2.25 2.25 0 0 0 5.25 21h13.5A2.25 2.25 0 0 0 21 18.75V16.5m-13.5-9L12 3m0 0 4.5 4.5M12 3v13.5" />
</symbol>


<symbol id="icon-document" viewBox="0 0 24 24" fill="none" stroke="currentColor" stroke-width="1.5">
  <path stroke-linecap="round" stroke-linejoin="round" d="M19.5 14.25v-2.625a3.375 3.375 0 0 0-3.375-3.375h-1.5A1.125 1.125 0 0 1 13.5 7.125v-1.5a3.375 3.375 0 0 0-3.375-3.375H8.25m2.25 0H5.625c-.621 0-1.125.504-1.125 1.125v17.25c0 .621.504 1.125 1.125 1.125h12.75c.621 0 1.125-.504 1.125-1.125V11.25a9 9 0 0 0-9-9Z" />
</symbol>

<symbol id="icon-arrow-left" viewBox="0 0 24 24" fill="none" stroke="currentColor" stroke-width="1.5">
  <path stroke-linecap="round" stroke-linejoin="round" d="M10.5 19.5 3 12m0 0 7.5-7.5M3 12h18" />
</symbol>

<symbol id="icon-role" viewBox="0 0 24 24" fill="none" stroke="currentColor" stroke-width="1.5">
  <path stroke-linecap="round" stroke-linejoin="round" d="M20.25 14.15v4.25c0 1.094-.787 2.036-1.872 2.18-2.087.277-4.216.42-6.378.42s-4.291-.143-6.378-.42c-1.085-.144-1.872-1.086-1.872-2.18v-4.25m16.5 0a2.18 2.18 0 0 0 .75-1.661V8.706c0-1.081-.768-2.015-1.837-2.175a48.114 48.114 0 0 0-3.413-.387m4.5 8.006c-.194.165-.42.295-.673.38A23.978 23.978 0 0 1 12 15.75c-2.648 0-5.195-.429-7.577-1.22a2.016 2.016 0 0 1-.673-.38m0 0A2.18 2.18 0 0 1 3 12.489V8.706c0-1.081.768-2.015 1.837-2.175a48.111 48.111 0 0 1 3.413-.387m7.5 0V5.25A2.25 2.25 0 0 0 13.5 3h-3a2.25 2.25 0 0 0-2.25 2.25v.894m7.5 0a48.667 48.667 0 0 0-7.5 0M12 12.75h.008v.008H12v-.008Z" />
</symbol>
<symbol id="icon-desc" viewBox="0 0 24 24" fill="none" stroke="currentColor" stroke-width="1.5">
  <path stroke-linecap="round" stroke-linejoin="round" d="M19.5 14.25v-2.625a3.375 3.375 0 0 0-3.375-3.375h-1.5A1.125 1.125 0 0 1 13.5 7.125v-1.5a3.375 3.375 0 0 0-3.375-3.375H8.25m0 12.75h7.5m-7.5 3H12M10.5 2.25H5.625c-.621 0-1.125.504-1.125 1.125v17.25c0 .621.504 1.125 1.125 1.125h12.75c.621 0 1.125-.504 1.125-1.125V11.25a9 9 0 0 0-9-9Z" />
</symbol>

<symbol id="icon-download" viewBox="0 0 24 24" fill="none" stroke="currentColor" stroke-width="1.5">
  <path stroke-linecap="round" stroke-linejoin="round" d="M3 16.5v2.25A2.25 2.25 0 0 0 5.25 21h13.5A2.25 2.25 0 0 0 21 18.75V16.5M16.5 12 12 16.5m0 0L7.5 12m4.5 4.5V3" />
</symbol>

<symbol id="icon-cross" viewBox="0 0 24 24" fill="none" stroke="currentColor" stroke-width="1.5">
  <path stroke-linecap="round" stroke-linejoin="round" d="M6 18 18 6M6 6l12 12" />
</symbol>

<symbol id="icon-logout" viewBox="0 0 24 24" fill="none" stroke="currentColor" stroke-width="1.5">
  <path stroke-linecap="round" stroke-linejoin="round" d="M8.25 9V5.25A2.25 2.25 0 0 1 10.5 3h6a2.25 2.25 0 0 1 2.25 2.25v13.5A2.25 2.25 0 0 1 16.5 21h-6a2.25 2.25 0 0 1-2.25-2.25V15m-3 0-3-3m0 0 3-3m-3 3H15" />
</symbol>

<symbol id="icon-sweater" viewBox="0 0 16 16" fill="none" stroke="currentColor" stroke-width="0.1">
<path fill="currentColor" d="M11.91 14.22H4.06l-.5-.5V7.06H2.15l-.48-.38L1 4l.33-.6L5.59 2l.64.32a2.7 2.7 0 0 0 .21.44q.107.155.24.29c.168.169.369.302.59.39a1.82 1.82 0 0 0 1.43 0a1.7 1.7 0 0 0 .59-.39q.135-.143.25-.3l.15-.29a1 1 0 0 0 .05-.14l.64-.32l4.26 1.42L15 4l-.66 2.66l-.49.38h-1.44v6.66zm-7.35-1h6.85V6.56l.5-.5h1.52l.46-1.83l-3.4-1.14a1 1 0 0 1-.12.21q-.165.242-.37.45a2.75 2.75 0 0 1-.91.61a2.85 2.85 0 0 1-2.22 0A2.9 2.9 0 0 1 6 3.75a2.2 2.2 0 0 1-.36-.44l-.13-.22l-3.43 1.14l.46 1.83h1.52l.5.5z"/>
</symbol>

<symbol id="icon-arrow-path" viewBox="0 0 24 24" fill="none" stroke="currentColor" stroke-width="1.5">
  <path stroke-linecap="round" stroke-linejoin="round" d="M16.023 9.348h4.992v-.001M2.985 19.644v-4.992m0 0h4.992m-4.993 0 3.181 3.183a8.25 8.25 0 0 0 13.803-3.7M4.031 9.865a8.25 8.25 0 0 1 13.803-3.7l3.181 3.182m0-4.991v4.99" />
</symbol>

<symbol id="icon-book" viewBox="0 0 24 24" fill="none" stroke="currentColor" stroke-width="1.5">
  <path stroke-linecap="round" stroke-linejoin="round" d="M12 6.042A8.967 8.967 0 0 0 6 3.75c-1.052 0-2.062.18-3 .512v14.25A8.987 8.987 0 0 1 6 18c2.305 0 4.408.867 6 2.292m0-14.25a8.966 8.966 0 0 1 6-2.292c1.052 0 2.062.18 3 .512v14.25A8.987 8.987 0 0 0 18 18a8.967 8.967 0 0 0-6 2.292m0-14.25v14.25" />
</symbol>

<symbol id="icon-clock" viewBox="0 0 24 24" fill="none" stroke="currentColor" stroke-width="1.5">
  <path stroke-linecap="round" stroke-linejoin="round" d="M12 6v6h4.5m4.5 0a9 9 0 1 1-18 0 9 9 0 0 1 18 0Z" />
</symbol>

<symbol id="icon-paper-airplane" viewBox="0 0 24 24" fill="none" stroke="currentColor" stroke-width="1.5">
  <path stroke-linecap="round" stroke-linejoin="round" d="M6 12 3.269 3.125A59.769 59.769 0 0 1 21.485 12 59.768 59.768 0 0 1 3.27 20.875L5.999 12Zm0 0h7.5" />
</symbol>

<symbol id="icon-computer-desktop" viewBox="0 0 24 24" fill="none" stroke="currentColor" stroke-width="1.5">
  <path stroke-linecap="round" stroke-linejoin="round" d="M9 17.25v1.007a3 3 0 0 1-.879 2.122L7.5 21h9l-.621-.621A3 3 0 0 1 15 18.257V17.25m6-12V15a2.25 2.25 0 0 1-2.25 2.25H5.25A2.25 2.25 0 0 1 3 15V5.25m18 0A2.25 2.25 0 0 0 18.75 3H5.25A2.25 2.25 0 0 0 3 5.25m18 0V12a2.25 2.25 0 0 1-2.25 2.25H5.25A2.25 2.25 0 0 1 3 12V5.25" />
</symbol>

<symbol id="icon-other-eye" viewBox="0 0 36 36" fill="currentColor" stroke="currentColor" stroke-width="0.1">
  <path d="M33.62,17.53c-3.37-6.23-9.28-10-15.82-10S5.34,11.3,2,17.53L1.72,18l.26.48c3.37,6.23,9.28,10,15.82,10s12.46-3.72,15.82-10l.26-.48ZM17.8,26.43C12.17,26.43,7,23.29,4,18c3-5.29,8.17-8.43,13.8-8.43S28.54,12.72,31.59,18C28.54,23.29,23.42,26.43,17.8,26.43Z" class="clr-i-solid clr-i-solid-path-1"></path>
  <circle cx="18.09" cy="18.03" r="6.86" class="clr-i-solid clr-i-solid-path-2"></circle>
</symbol>

<symbol id="icon-other-eye-slash" viewBox="0 0 36 36" fill="currentColor" stroke="currentColor" stroke-width="0.1">
  <path d="M18.37,11.17A6.79,6.79,0,0,0,16,11.6l8.8,8.8A6.78,6.78,0,0,0,25.23,18,6.86,6.86,0,0,0,18.37,11.17Z" class="clr-i-solid clr-i-solid-path-1"></path>
  <path d="M34.29,17.53c-3.37-6.23-9.28-10-15.82-10a16.82,16.82,0,0,0-5.24.85L14.84,10a14.78,14.78,0,0,1,3.63-.47c5.63,0,10.75,3.14,13.8,8.43a17.75,17.75,0,0,1-4.37,5.1l1.42,1.42a19.93,19.93,0,0,0,5-6l.26-.48Z" class="clr-i-solid clr-i-solid-path-2"></path>
  <path d="M4.87,5.78l4.46,4.46a19.52,19.52,0,0,0-6.69,7.29L2.38,18l.26.48c3.37,6.23,9.28,10,15.82,10a16.93,16.93,0,0,0,7.37-1.69l5,5,1.75-1.5-26-26Zm8.3,8.3a6.85,6.85,0,0,0,9.55,9.55l1.6,1.6a14.91,14.91,0,0,1-5.86,1.2c-5.63,0-10.75-3.14-13.8-8.43a17.29,17.29,0,0,1,6.12-6.3Z" class="clr-i-solid clr-i-solid-path-3"></path>
</symbol>

<symbol id="icon-eye-slash" viewBox="0 0 24 24" fill="none" stroke="currentColor" stroke-width="1.5">
  <path stroke-linecap="round" stroke-linejoin="round" d="M3.98 8.223A10.477 10.477 0 0 0 1.934 12C3.226 16.338 7.244 19.5 12 19.5c.993 0 1.953-.138 2.863-.395M6.228 6.228A10.451 10.451 0 0 1 12 4.5c4.756 0 8.773 3.162 10.065 7.498a10.522 10.522 0 0 1-4.293 5.774M6.228 6.228 3 3m3.228 3.228 3.65 3.65m7.894 7.894L21 21m-3.228-3.228-3.65-3.65m0 0a3 3 0 1 0-4.243-4.243m4.242 4.242L9.88 9.88" />
</symbol>

<symbol id="icon-star" viewBox="0 0 24 24" fill="none" stroke="currentColor" stroke-width="1.5">
  <path stroke-linecap="round" stroke-linejoin="round" d="M11.48 3.499a.562.562 0 0 1 1.04 0l2.125 5.111a.563.563 0 0 0 .475.345l5.518.442c.499.04.701.663.321.988l-4.204 3.602a.563.563 0 0 0-.182.557l1.285 5.385a.562.562 0 0 1-.84.61l-4.725-2.885a.562.562 0 0 0-.586 0L6.982 20.54a.562.562 0 0 1-.84-.61l1.285-5.386a.562.562 0 0 0-.182-.557l-4.204-3.602a.562.562 0 0 1 .321-.988l5.518-.442a.563.563 0 0 0 .475-.345L11.48 3.5Z" />
</symbol>

<symbol id="icon-chart-bar" viewBox="0 0 24 24" fill="none" stroke="currentColor" stroke-width="1.5">
  <path stroke-linecap="round" stroke-linejoin="round" d="M3 13.125C3 12.504 3.504 12 4.125 12h2.25c.621 0 1.125.504 1.125 1.125v6.75C7.5 20.496 6.996 21 6.375 21h-2.25A1.125 1.125 0 0 1 3 19.875v-6.75ZM9.75 8.625c0-.621.504-1.125 1.125-1.125h2.25c.621 0 1.125.504 1.125 1.125v11.25c0 .621-.504 1.125-1.125 1.125h-2.25a1.125 1.125 0 0 1-1.125-1.125V8.625ZM16.5 4.125c0-.621.504-1.125 1.125-1.125h2.25C20.496 3 21 3.504 21 4.125v15.75c0 .621-.504 1.125-1.125 1.125h-2.25a1.125 1.125 0 0 1-1.125-1.125V4.125Z" />
</symbol>

<symbol id="icon-arrow-right" viewBox="0 0 24 24" fill="none" stroke="currentColor" stroke-width="1.5">
  <path stroke-linecap="round" stroke-linejoin="round" d="M13.5 4.5 21 12m0 0-7.5 7.5M21 12H3" />
</symbol>

<symbol id="icon-language" viewBox="0 0 24 24" fill="none" stroke="currentColor" stroke-width="1.5">
  <path stroke-linecap="round" stroke-linejoin="round" d="m10.5 21 5.25-11.25L21 21m-9-3h7.5M3 5.621a48.474 48.474 0 0 1 6-.371m0 0c1.12 0 2.233.038 3.334.114M9 5.25V3m3.334 2.364C11.176 10.658 7.69 15.08 3 17.502m9.334-12.138c.896.061 1.785.147 2.666.257m-4.589 8.495a18.023 18.023 0 0 1-3.827-5.802" />
</symbol>

<symbol id="icon-check" viewBox="0 0 24 24" fill="none" stroke="currentColor" stroke-width="1.5">
  <path stroke-linecap="round" stroke-linejoin="round" d="m4.5 12.75 6 6 9-13.5" />
</symbol>

<symbol id="icon-wrench-screwdriver" viewBox="0 0 24 24" fill="none" stroke="currentColor" stroke-width="1.5">
  <path stroke-linecap="round" stroke-linejoin="round" d="M11.42 15.17 17.25 21A2.652 2.652 0 0 0 21 17.25l-5.877-5.877M11.42 15.17l2.496-3.03c.317-.384.74-.626 1.208-.766M11.42 15.17l-4.655 5.653a2.548 2.548 0 1 1-3.586-3.586l6.837-5.63m5.108-.233c.55-.164 1.163-.188 1.743-.14a4.5 4.5 0 0 0 4.486-6.336l-3.276 3.277a3.004 3.004 0 0 1-2.25-2.25l3.276-3.276a4.5 4.5 0 0 0-6.336 4.486c.091 1.076-.071 2.264-.904 2.95l-.102.085m-1.745 1.437L5.909 7.5H4.5L2.25 3.75l1.5-1.5L7.5 4.5v1.409l4.26 4.26m-1.745 1.437 1.745-1.437m6.615 8.206L15.75 15.75M4.867 19.125h.008v.008h-.008v-.008Z" />
</symbol>

<symbol id="icon-academic-cap" viewBox="0 0 24 24" fill="none" stroke="currentColor" stroke-width="1.5">
  <path stroke-linecap="round" stroke-linejoin="round" d="M4.26 10.147a60.438 60.438 0 0 0-.491 6.347A48.62 48.62 0 0 1 12 20.904a48.62 48.62 0 0 1 8.232-4.41 60.46 60.46 0 0 0-.491-6.347m-15.482 0a50.636 50.636 0 0 0-2.658-.813A59.906 59.906 0 0 1 12 3.493a59.903 59.903 0 0 1 10.399 5.84c-.896.248-1.783.52-2.658.814m-15.482 0A50.717 50.717 0 0 1 12 13.489a50.702 50.702 0 0 1 7.74-3.342M6.75 15a.75.75 0 1 0 0-1.5.75.75 0 0 0 0 1.5Zm0 0v-3.675A55.378 55.378 0 0 1 12 8.443m-7.007 11.55A5.981 5.981 0 0 0 6.75 15.75v-1.5" />
</symbol>

<symbol id="icon-adjustments-horizontal" viewBox="0 0 24 24" fill="none" stroke="currentColor" stroke-width="1.5">
  <path stroke-linecap="round" stroke-linejoin="round" d="M10.5 6h9.75M10.5 6a1.5 1.5 0 1 1-3 0m3 0a1.5 1.5 0 1 0-3 0M3.75 6H7.5m3 12h9.75m-9.75 0a1.5 1.5 0 0 1-3 0m3 0a1.5 1.5 0 0 0-3 0m-3.75 0H7.5m9-6h3.75m-3.75 0a1.5 1.5 0 0 1-3 0m3 0a1.5 1.5 0 0 0-3 0m-9.75 0h9.75" />
</symbol>

<symbol id="icon-adjustments-vertical" viewBox="0 0 24 24" fill="none" stroke="currentColor" stroke-width="1.5">
  <path stroke-linecap="round" stroke-linejoin="round" d="M6 13.5V3.75m0 9.75a1.5 1.5 0 0 1 0 3m0-3a1.5 1.5 0 0 0 0 3m0 3.75V16.5m12-3V3.75m0 9.75a1.5 1.5 0 0 1 0 3m0-3a1.5 1.5 0 0 0 0 3m0 3.75V16.5m-6-9V3.75m0 3.75a1.5 1.5 0 0 1 0 3m0-3a1.5 1.5 0 0 0 0 3m0 9.75V10.5" />
</symbol>


<symbol id="icon-cog-6-tooth" viewBox="0 0 24 24" fill="none" stroke="currentColor" stroke-width="1.5">
  <path stroke-linecap="round" stroke-linejoin="round" d="M9.594 3.94c.09-.542.56-.94 1.11-.94h2.593c.55 0 1.02.398 1.11.94l.213 1.281c.063.374.313.686.645.87.074.04.147.083.22.127.325.196.72.257 1.075.124l1.217-.456a1.125 1.125 0 0 1 1.37.49l1.296 2.247a1.125 1.125 0 0 1-.26 1.431l-1.003.827c-.293.241-.438.613-.43.992a7.723 7.723 0 0 1 0 .255c-.008.378.137.75.43.991l1.004.827c.424.35.534.955.26 1.43l-1.298 2.247a1.125 1.125 0 0 1-1.369.491l-1.217-.456c-.355-.133-.75-.072-1.076.124a6.47 6.47 0 0 1-.22.128c-.331.183-.581.495-.644.869l-.213 1.281c-.09.543-.56.94-1.11.94h-2.594c-.55 0-1.019-.398-1.11-.94l-.213-1.281c-.062-.374-.312-.686-.644-.87a6.52 6.52 0 0 1-.22-.127c-.325-.196-.72-.257-1.076-.124l-1.217.456a1.125 1.125 0 0 1-1.369-.49l-1.297-2.247a1.125 1.125 0 0 1 .26-1.431l1.004-.827c.292-.24.437-.613.43-.991a6.932 6.932 0 0 1 0-.255c.007-.38-.138-.751-.43-.992l-1.004-.827a1.125 1.125 0 0 1-.26-1.43l1.297-2.247a1.125 1.125 0 0 1 1.37-.491l1.216.456c.356.133.751.072 1.076-.124.072-.044.146-.086.22-.128.332-.183.582-.495.644-.869l.214-1.28Z" />
  <path stroke-linecap="round" stroke-linejoin="round" d="M15 12a3 3 0 1 1-6 0 3 3 0 0 1 6 0Z" />
</symbol>

<symbol id="icon-sparkles" viewBox="0 0 24 24" fill="none" stroke="currentColor" stroke-width="1.5">
  <path stroke-linecap="round" stroke-linejoin="round" d="M9.813 15.904 9 18.75l-.813-2.846a4.5 4.5 0 0 0-3.09-3.09L2.25 12l2.846-.813a4.5 4.5 0 0 0 3.09-3.09L9 5.25l.813 2.846a4.5 4.5 0 0 0 3.09 3.09L15.75 12l-2.846.813a4.5 4.5 0 0 0-3.09 3.09ZM18.259 8.715 18 9.75l-.259-1.035a3.375 3.375 0 0 0-2.455-2.456L14.25 6l1.036-.259a3.375 3.375 0 0 0 2.455-2.456L18 2.25l.259 1.035a3.375 3.375 0 0 0 2.456 2.456L21.75 6l-1.035.259a3.375 3.375 0 0 0-2.456 2.456ZM16.894 20.567 16.5 21.75l-.394-1.183a2.25 2.25 0 0 0-1.423-1.423L13.5 18.75l1.183-.394a2.25 2.25 0 0 0 1.423-1.423l.394-1.183.394 1.183a2.25 2.25 0 0 0 1.423 1.423l1.183.394-1.183.394a2.25 2.25 0 0 0-1.423 1.423Z" />
</symbol>

<symbol id="icon-sea" viewBox="0 0 24 24" fill="none" stroke="currentColor" stroke-width="1.5">
  <path stroke-linecap="round" stroke-linejoin="round" d="M3 10c2.483 0 4.345-3 4.345-3s1.862 3 4.345 3s4.965-3 4.965-3s2.483 3 4.345 3M3 17c2.483 0 4.345-3 4.345-3s1.862 3 4.345 3s4.965-3 4.965-3s2.483 3 4.345 3"/>
</symbol>

<symbol id="icon-link-slash" viewBox="0 0 24 24" fill="none" stroke="currentColor" stroke-width="1.5">
  <path stroke-linecap="round" stroke-linejoin="round" d="M13.181 8.68a4.503 4.503 0 0 1 1.903 6.405m-9.768-2.782L3.56 14.06a4.5 4.5 0 0 0 6.364 6.365l3.129-3.129m5.614-5.615 1.757-1.757a4.5 4.5 0 0 0-6.364-6.365l-4.5 4.5c-.258.26-.479.541-.661.84m1.903 6.405a4.495 4.495 0 0 1-1.242-.88 4.483 4.483 0 0 1-1.062-1.683m6.587 2.345 5.907 5.907m-5.907-5.907L8.898 8.898M2.991 2.99 8.898 8.9" />
</symbol>

<symbol id="icon-link" viewBox="0 0 24 24" fill="none" stroke="currentColor" stroke-width="1.5">
  <path stroke-linecap="round" stroke-linejoin="round" d="M13.19 8.688a4.5 4.5 0 0 1 1.242 7.244l-4.5 4.5a4.5 4.5 0 0 1-6.364-6.364l1.757-1.757m13.35-.622 1.757-1.757a4.5 4.5 0 0 0-6.364-6.364l-4.5 4.5a4.5 4.5 0 0 0 1.242 7.244" />
</symbol>

<symbol id="icon-calendar-range" viewBox="0 0 24 24" fill="none" stroke="currentColor" stroke-width="1.5">
  <path stroke-linecap="round" stroke-linejoin="round" d="M6.75 2.994v2.25m10.5-2.25v2.25m-14.252 13.5V7.491a2.25 2.25 0 0 1 2.25-2.25h13.5a2.25 2.25 0 0 1 2.25 2.25v11.251m-18 0a2.25 2.25 0 0 0 2.25 2.25h13.5a2.25 2.25 0 0 0 2.25-2.25m-18 0v-7.5a2.25 2.25 0 0 1 2.25-2.25h13.5a2.25 2.25 0 0 1 2.25 2.25v7.5m-6.75-6h2.25m-9 2.25h4.5m.002-2.25h.005v.006H12v-.006Zm-.001 4.5h.006v.006h-.006v-.005Zm-2.25.001h.005v.006H9.75v-.006Zm-2.25 0h.005v.005h-.006v-.005Zm6.75-2.247h.005v.005h-.005v-.005Zm0 2.247h.006v.006h-.006v-.006Zm2.25-2.248h.006V15H16.5v-.005Z" />
</symbol>

<symbol id="icon-id" viewBox="0 0 24 24" fill="none" stroke="currentColor" stroke-width="1.5">
  <path stroke-linecap="round" stroke-linejoin="round" d="M15 9h3.75M15 12h3.75M15 15h3.75M4.5 19.5h15a2.25 2.25 0 0 0 2.25-2.25V6.75A2.25 2.25 0 0 0 19.5 4.5h-15a2.25 2.25 0 0 0-2.25 2.25v10.5A2.25 2.25 0 0 0 4.5 19.5Zm6-10.125a1.875 1.875 0 1 1-3.75 0 1.875 1.875 0 0 1 3.75 0Zm1.294 6.336a6.721 6.721 0 0 1-3.17.789 6.721 6.721 0 0 1-3.168-.789 3.376 3.376 0 0 1 6.338 0Z" />
</symbol>

<symbol id="icon-arrows-right-left" viewBox="0 0 24 24" fill="none" stroke="currentColor" stroke-width="1.5">
  <path stroke-linecap="round" stroke-linejoin="round" d="M7.5 21 3 16.5m0 0L7.5 12M3 16.5h13.5m0-13.5L21 7.5m0 0L16.5 12M21 7.5H7.5" />
</symbol>

<symbol id="icon-pencil" viewBox="0 0 24 24" fill="none" stroke="currentColor" stroke-width="1.5">
  <path stroke-linecap="round" stroke-linejoin="round" d="m16.862 4.487 1.687-1.688a1.875 1.875 0 1 1 2.652 2.652L6.832 19.82a4.5 4.5 0 0 1-1.897 1.13l-2.685.8.8-2.685a4.5 4.5 0 0 1 1.13-1.897L16.863 4.487Zm0 0L19.5 7.125" />
</symbol>

<symbol id="icon-cog-8-tooth" viewBox="0 0 24 24" fill="none" stroke="currentColor" stroke-width="1.5">
  <path stroke-linecap="round" stroke-linejoin="round" d="M10.343 3.94c.09-.542.56-.94 1.11-.94h1.093c.55 0 1.02.398 1.11.94l.149.894c.07.424.384.764.78.93.398.164.855.142 1.205-.108l.737-.527a1.125 1.125 0 0 1 1.45.12l.773.774c.39.389.44 1.002.12 1.45l-.527.737c-.25.35-.272.806-.107 1.204.165.397.505.71.93.78l.893.15c.543.09.94.559.94 1.109v1.094c0 .55-.397 1.02-.94 1.11l-.894.149c-.424.07-.764.383-.929.78-.165.398-.143.854.107 1.204l.527.738c.32.447.269 1.06-.12 1.45l-.774.773a1.125 1.125 0 0 1-1.449.12l-.738-.527c-.35-.25-.806-.272-1.203-.107-.398.165-.71.505-.781.929l-.149.894c-.09.542-.56.94-1.11.94h-1.094c-.55 0-1.019-.398-1.11-.94l-.148-.894c-.071-.424-.384-.764-.781-.93-.398-.164-.854-.142-1.204.108l-.738.527c-.447.32-1.06.269-1.45-.12l-.773-.774a1.125 1.125 0 0 1-.12-1.45l.527-.737c.25-.35.272-.806.108-1.204-.165-.397-.506-.71-.93-.78l-.894-.15c-.542-.09-.94-.56-.94-1.109v-1.094c0-.55.398-1.02.94-1.11l.894-.149c.424-.07.765-.383.93-.78.165-.398.143-.854-.108-1.204l-.526-.738a1.125 1.125 0 0 1 .12-1.45l.773-.773a1.125 1.125 0 0 1 1.45-.12l.737.527c.35.25.807.272 1.204.107.397-.165.71-.505.78-.929l.15-.894Z" />
  <path stroke-linecap="round" stroke-linejoin="round" d="M15 12a3 3 0 1 1-6 0 3 3 0 0 1 6 0Z" />
</symbol>
<symbol id="icon-d20" viewBox="0 0 24 24" fill="currentColor" stroke="currentColor" stroke-width="0.1">
  <path d="M20.717,4.43L14.417,.666c-1.491-.889-3.343-.889-4.834,0L3.283,4.43c-1.408,.842-2.283,2.38-2.283,4.016v7.109c0,1.636,.875,3.174,2.283,4.016l6.3,3.764c.746,.444,1.581,.667,2.417,.667s1.671-.223,2.417-.667l6.3-3.764c1.408-.842,2.283-2.38,2.283-4.016v-7.109c0-1.636-.875-3.174-2.283-4.016ZM13.904,1.525l6.3,3.764c.498,.297,.911,.706,1.215,1.183l-4.325,2.17L12.913,1.114c.343,.087,.678,.224,.991,.412Zm-1.904,.004l4.153,7.47H7.85L12,1.53ZM3.795,5.289L10.096,1.525c.314-.188,.648-.325,.992-.412l-4.18,7.529L2.582,6.47c.304-.476,.716-.884,1.214-1.181Zm-1.776,10.638c-.013-.123-.02-.248-.02-.373v-7.109c0-.365,.056-.724,.161-1.067l4.232,2.125L2.02,15.927Zm4.948-5.495l4.115,6.996-8.437-.645,4.322-6.351Zm4.532,12.536c-.488-.067-.966-.231-1.404-.493l-6.3-3.764c-.402-.24-.749-.553-1.027-.915l8.732,.662v4.51Zm-3.625-12.968h8.251l-4.125,7.014-4.125-7.014Zm12.33,8.711l-6.3,3.764c-.438,.263-.916,.427-1.404,.494v-4.504l8.723-.657c-.277,.357-.62,.666-1.018,.903Zm-7.292-1.276l4.123-7.009,4.432,6.36-8.555,.649Zm9.087-1.88c0,.078-.003,.157-.008,.234l-4.383-6.286,4.231-2.123c.105,.342,.16,.7,.16,1.065v7.109Z"/>
</symbol>

<symbol id="icon-chat-bubble-bottom-center" viewBox="0 0 24 24" fill="none" stroke="currentColor" stroke-width="1.5">
  <path stroke-linecap="round" stroke-linejoin="round" d="M2.25 12.76c0 1.6 1.123 2.994 2.707 3.227 1.068.157 2.148.279 3.238.364.466.037.893.281 1.153.671L12 21l2.652-3.978c.26-.39.687-.634 1.153-.67 1.09-.086 2.17-.208 3.238-.365 1.584-.233 2.707-1.626 2.707-3.228V6.741c0-1.602-1.123-2.995-2.707-3.228A48.394 48.394 0 0 0 12 3c-2.392 0-4.744.175-7.043.513C3.373 3.746 2.25 5.14 2.25 6.741v6.018Z" />
</symbol>

<symbol id="icon-worker" viewBox="0 0 24 24" fill="currentColor" stroke="currentColor" stroke-width="0.1">
  <path d="m24 16.508c0 2.071-1.167 3.958-3 4.894v2.098c0 .276-.224.5-.5.5s-.5-.224-.5-.5v-2.414c0-.199.118-.378.299-.458 1.641-.718 2.701-2.335 2.701-4.12 0-1.338-.592-2.598-1.625-3.455-.195-.113-.337-.047-.375.176v2.172c0 1.274-.896 2.38-2.084 2.573-1.481.278-2.95-.962-2.916-2.466v-2.279c-.038-.223-.18-.289-.375-.176-1.032.857-1.625 2.117-1.625 3.455 0 1.785 1.06 3.402 2.701 4.12.182.08.299.259.299.458v2.414c0 .276-.224.5-.5.5s-.5-.224-.5-.5v-2.098c-1.833-.937-3-2.823-3-4.894 0-1.636.724-3.176 1.986-4.225.751-.672 2.051-.062 2.014.946v2.279c-.018.905.86 1.65 1.755 1.479.71-.115 1.245-.797 1.245-1.586v-2.172c-.037-1.008 1.263-1.617 2.014-.946 1.262 1.049 1.986 2.588 1.986 4.225zm-9.987-8.509c0 3.31-2.691 6.001-6 6.001s-6-2.691-6-6l-.002-1h-1.011c-.276 0-.5-.224-.5-.5s.224-.5.5-.5h1.01v-.491c-.067-2.959 2.539-5.57 5.499-5.509h1c3.028 0 5.495 2.463 5.5 5.491v.509h.992c.276 0 .5.224.5.5s-.224.5-.5.5h-.989l.002.999zm-11.003-1.999h9.999v-.507c-.004-1.952-1.266-3.6-3.009-4.219v2.226c0 .276-.224.5-.5.5s-.5-.224-.5-.5v-2.45c-.164-.018-.323-.05-.492-.05h-1c-.173 0-.34.031-.509.05v2.45c0 .276-.224.5-.5.5s-.5-.224-.5-.5v-2.225c-.621.221-1.196.565-1.676 1.045-.85.852-1.317 1.983-1.315 3.187v.493zm10.004 2-.002-1h-10.001l.002.999c0 2.758 2.243 5.001 5 5.001s5-2.243 5-5zm-2.347 7.451c-.851-.299-1.744-.451-2.653-.451-4.412 0-8.001 3.589-8.001 7.987l-.013.5c-.007.276.211.505.487.513h.013c.27 0 .493-.216.5-.487l.013-.513c0-3.86 3.14-7 7-7 .796 0 1.577.133 2.322.394.257.09.545-.045.637-.306.092-.26-.045-.546-.306-.637z"/>
</symbol>
  
<symbol id="icon-square" viewBox="0 0 24 24" fill="none" stroke="currentColor" stroke-width="1.5">
  <path stroke-linecap="round" stroke-linejoin="round" d="M3.75 6A2.25 2.25 0 0 1 6 3.75h2.25A2.25 2.25 0 0 1 10.5 6v2.25a2.25 2.25 0 0 1-2.25 2.25H6a2.25 2.25 0 0 1-2.25-2.25V6ZM3.75 15.75A2.25 2.25 0 0 1 6 13.5h2.25a2.25 2.25 0 0 1 2.25 2.25V18a2.25 2.25 0 0 1-2.25 2.25H6A2.25 2.25 0 0 1 3.75 18v-2.25ZM13.5 6a2.25 2.25 0 0 1 2.25-2.25H18A2.25 2.25 0 0 1 20.25 6v2.25A2.25 2.25 0 0 1 18 10.5h-2.25a2.25 2.25 0 0 1-2.25-2.25V6ZM13.5 15.75a2.25 2.25 0 0 1 2.25-2.25H18a2.25 2.25 0 0 1 2.25 2.25V18A2.25 2.25 0 0 1 18 20.25h-2.25A2.25 2.25 0 0 1 13.5 18v-2.25Z" />
</symbol>

<symbol id="icon-table" viewBox="0 0 24 24" fill="none" stroke="currentColor" stroke-width="1.5">
  <path stroke-linecap="round" stroke-linejoin="round" d="M3.375 19.5h17.25m-17.25 0a1.125 1.125 0 0 1-1.125-1.125M3.375 19.5h7.5c.621 0 1.125-.504 1.125-1.125m-9.75 0V5.625m0 12.75v-1.5c0-.621.504-1.125 1.125-1.125m18.375 2.625V5.625m0 12.75c0 .621-.504 1.125-1.125 1.125m1.125-1.125v-1.5c0-.621-.504-1.125-1.125-1.125m0 3.75h-7.5A1.125 1.125 0 0 1 12 18.375m9.75-12.75c0-.621-.504-1.125-1.125-1.125H3.375c-.621 0-1.125.504-1.125 1.125m19.5 0v1.5c0 .621-.504 1.125-1.125 1.125M2.25 5.625v1.5c0 .621.504 1.125 1.125 1.125m0 0h17.25m-17.25 0h7.5c.621 0 1.125.504 1.125 1.125M3.375 8.25c-.621 0-1.125.504-1.125 1.125v1.5c0 .621.504 1.125 1.125 1.125m17.25-3.75h-7.5c-.621 0-1.125.504-1.125 1.125m8.625-1.125c.621 0 1.125.504 1.125 1.125v1.5c0 .621-.504 1.125-1.125 1.125m-17.25 0h7.5m-7.5 0c-.621 0-1.125.504-1.125 1.125v1.5c0 .621.504 1.125 1.125 1.125M12 10.875v-1.5m0 1.5c0 .621-.504 1.125-1.125 1.125M12 10.875c0 .621.504 1.125 1.125 1.125m-2.25 0c.621 0 1.125.504 1.125 1.125M13.125 12h7.5m-7.5 0c-.621 0-1.125.504-1.125 1.125M20.625 12c.621 0 1.125.504 1.125 1.125v1.5c0 .621-.504 1.125-1.125 1.125m-17.25 0h7.5M12 14.625v-1.5m0 1.5c0 .621-.504 1.125-1.125 1.125M12 14.625c0 .621.504 1.125 1.125 1.125m-2.25 0c.621 0 1.125.504 1.125 1.125m0 1.5v-1.5m0 0c0-.621.504-1.125 1.125-1.125m0 0h7.5" />
</symbol>

<symbol id="icon-search" viewBox="0 0 24 24" fill="none" stroke="currentColor" stroke-width="1.5">
  <path stroke-linecap="round" stroke-linejoin="round" d="m21 21-5.197-5.197m0 0A7.5 7.5 0 1 0 5.196 5.196a7.5 7.5 0 0 0 10.607 10.607Z" />
</symbol>

<symbol id="icon-moon" viewBox="0 0 24 24" fill="none" stroke="currentColor" stroke-width="1.5">
  <path stroke-linecap="round" stroke-linejoin="round" d="M21.752 15.002A9.72 9.72 0 0 1 18 15.75c-5.385 0-9.75-4.365-9.75-9.75 0-1.33.266-2.597.748-3.752A9.753 9.753 0 0 0 3 11.25C3 16.635 7.365 21 12.75 21a9.753 9.753 0 0 0 9.002-5.998Z" />
</symbol>

<symbol id="icon-sun" viewBox="0 0 24 24" fill="none" stroke="currentColor" stroke-width="1.5">
  <path stroke-linecap="round" stroke-linejoin="round" d="M12 3v2.25m6.364.386-1.591 1.591M21 12h-2.25m-.386 6.364-1.591-1.591M12 18.75V21m-4.773-4.227-1.591 1.591M5.25 12H3m4.227-4.773L5.636 5.636M15.75 12a3.75 3.75 0 1 1-7.5 0 3.75 3.75 0 0 1 7.5 0Z" />
</symbol>


<symbol id="icon-conctact" viewBox="0 0 24 24" fill="none" stroke="currentColor" stroke-width="1.5">
  <path stroke-linecap="round" stroke-linejoin="round" d="M21 2H6a2 2 0 0 0-2 2v3H2v2h2v2H2v2h2v2H2v2h2v3a2 2 0 0 0 2 2h15a1 1 0 0 0 1-1V3a1 1 0 0 0-1-1m-8 2.999c1.648 0 3 1.351 3 3A3.01 3.01 0 0 1 13 11c-1.647 0-3-1.353-3-3.001c0-1.649 1.353-3 3-3M19 18H7v-.75c0-2.219 2.705-4.5 6-4.5s6 2.281 6 4.5z"/>
</symbol>

<symbol id="icon-category" viewBox="0 0 24 24" fill="none" stroke="currentColor" stroke-width="1.5">
  <path fill="none" stroke="currentColor" stroke-linecap="round" stroke-linejoin="round" stroke-width="2" d="M4 4h6v6H4zm10 0h6v6h-6zM4 14h6v6H4zm10 3a3 3 0 1 0 6 0a3 3 0 1 0-6 0"/>
</symbol>

<symbol id="icon-notebook" viewBox="0 0 48 48" fill="none" stroke="currentColor" stroke-width="1.5">
  <g fill="none" stroke="currentColor" stroke-linejoin="round" stroke-width="3">
    <path d="M10 6a2 2 0 0 1 2-2h28a2 2 0 0 1 2 2v36a2 2 0 0 1-2 2H12a2 2 0 0 1-2-2z"/>
    <path stroke-linecap="round" d="M34 6v36M6 14h8M6 24h8M6 34h8M27 4h12M27 44h12"/>
  </g>
</symbol>
<symbol id="icon-services" viewBox="0 0 24 24" fill="currentColor" stroke="currentColor" stroke-width="0.5">
  <path d="m22.991 22.408c.051.271-.128.533-.399.583-.265.052-.534-.126-.583-.399-.343-1.841-1.504-2.592-4.009-2.592s-3.666.751-4.009 2.592c-.05.271-.308.449-.583.399-.271-.05-.45-.312-.399-.583.438-2.357 1.978-3.408 4.991-3.408s4.553 1.051 4.991 3.408zm-1.99-7.417c-.035 1.963-1.072 2.997-2.998 3.009-1.932-.011-2.969-1.045-3.004-2.991v-.018c.034-1.917 1.099-2.979 2.998-2.991 1.879.012 2.972 1.103 3.004 2.991zm-1 0c-.023-1.344-.66-1.982-2.004-1.991-1.353.008-1.971.625-1.998 2 .027 1.376.646 1.992 2.004 2 1.373-.009 1.973-.609 1.998-2.009zm-15.003-2.991c1.784 0 2.912-.453 3.502-1.461.59 1.009 1.717 1.461 3.5 1.461 2.703 0 3.898-1.041 4-3.479 0-.004-.002-.007-.002-.011 0-.003.002-.006.002-.009 0-1.02-.124-2.02-.129-2.062-.034-.274-.288-.468-.558-.434-.274.034-.469.284-.435.558 0 .01.119.971.121 1.92-.079 1.906-.809 2.518-3 2.518s-2.921-.612-3-2.518c.001-.949.12-1.911.121-1.92.034-.274-.16-.524-.435-.558-.259-.035-.523.159-.558.434-.005.042-.127 1.028-.129 2.04v.001c-.078 1.908-.808 2.521-3.002 2.521-2.13 0-2.914-.699-2.994-2.652-.006-2.115 1.095-4.665 1.424-5.38.789-.218 3.839-.967 8.572-.967s7.784.749 8.572.967c.329.715 1.431 3.263 1.424 5.362-.034.843-.207 1.452-.531 1.861-.171.216-.134.531.082.702.215.17.532.136.703-.082.459-.58.703-1.378.746-2.459.008-2.713-1.554-5.889-1.62-6.023-.061-.121-.167-.212-.295-.253-.136-.043-3.396-1.074-9.081-1.074s-8.943 1.028-9.079 1.071c-.128.042-.234.133-.295.253-.066.134-1.628 3.31-1.62 6.042.055 1.324.433 2.252 1.159 2.842-.108 1.018-.163 2.063-.163 3.108 0 4.36.515 7.104.536 7.219.034.18.164.326.338.382.113.037 2.823.896 7.609 1.056h.017c.269 0 .49-.213.5-.483.009-.276-.207-.507-.483-.517-3.767-.125-6.242-.708-7.049-.925-.131-.822-.468-3.281-.468-6.731 0-.871.047-1.738.125-2.591.523.177 1.138.272 1.873.272z"/>
</symbol>

<symbol id="icon-camera" viewBox="0 0 24 24" fill="none" stroke="currentColor" stroke-width="1.5">
  <path stroke-linecap="round" stroke-linejoin="round" d="M6.827 6.175A2.31 2.31 0 0 1 5.186 7.23c-.38.054-.757.112-1.134.175C2.999 7.58 2.25 8.507 2.25 9.574V18a2.25 2.25 0 0 0 2.25 2.25h15A2.25 2.25 0 0 0 21.75 18V9.574c0-1.067-.75-1.994-1.802-2.169a47.865 47.865 0 0 0-1.134-.175 2.31 2.31 0 0 1-1.64-1.055l-.822-1.316a2.192 2.192 0 0 0-1.736-1.039 48.774 48.774 0 0 0-5.232 0 2.192 2.192 0 0 0-1.736 1.039l-.821 1.316Z" />
  <path stroke-linecap="round" stroke-linejoin="round" d="M16.5 12.75a4.5 4.5 0 1 1-9 0 4.5 4.5 0 0 1 9 0ZM18.75 10.5h.008v.008h-.008V10.5Z" />
</symbol>

<symbol id="icon-paint-brush" viewBox="0 0 24 24" fill="none" stroke="currentColor" stroke-width="1.5">
  <path stroke-linecap="round" stroke-linejoin="round" d="M9.53 16.122a3 3 0 0 0-5.78 1.128 2.25 2.25 0 0 1-2.4 2.245 4.5 4.5 0 0 0 8.4-2.245c0-.399-.078-.78-.22-1.128Zm0 0a15.998 15.998 0 0 0 3.388-1.62m-5.043-.025a15.994 15.994 0 0 1 1.622-3.395m3.42 3.42a15.995 15.995 0 0 0 4.764-4.648l3.876-5.814a1.151 1.151 0 0 0-1.597-1.597L14.146 6.32a15.996 15.996 0 0 0-4.649 4.763m3.42 3.42a6.776 6.776 0 0 0-3.42-3.42" />
</symbol>

<symbol id="icon-trash" viewBox="0 0 24 24" fill="none" stroke="currentColor" stroke-width="1.5">
  <path stroke-linecap="round" stroke-linejoin="round" d="m14.74 9-.346 9m-4.788 0L9.26 9m9.968-3.21c.342.052.682.107 1.022.166m-1.022-.165L18.16 19.673a2.25 2.25 0 0 1-2.244 2.077H8.084a2.25 2.25 0 0 1-2.244-2.077L4.772 5.79m14.456 0a48.108 48.108 0 0 0-3.478-.397m-12 .562c.34-.059.68-.114 1.022-.165m0 0a48.11 48.11 0 0 1 3.478-.397m7.5 0v-.916c0-1.18-.91-2.164-2.09-2.201a51.964 51.964 0 0 0-3.32 0c-1.18.037-2.09 1.022-2.09 2.201v.916m7.5 0a48.667 48.667 0 0 0-7.5 0" />
</symmbol>

<symbol id="icon-dots" viewBox="0 0 24 24" fill="none" stroke="currentColor" stroke-width="1.5">
  <path fill="none" stroke="currentColor" stroke-linecap="round" stroke-linejoin="round" stroke-width="2" d="M11 12a1 1 0 1 0 2 0a1 1 0 1 0-2 0m0 7a1 1 0 1 0 2 0a1 1 0 1 0-2 0m0-14a1 1 0 1 0 2 0a1 1 0 1 0-2 0"/>
</symbol>

<symbol id="icon-excel" viewBox="0 0 48 48" fill="none" stroke="currentColor" stroke-width="1.5">
  <g fill="none" stroke="currentColor" stroke-linecap="round" stroke-width="4"><path stroke-linejoin="round" d="M8 15V6a2 2 0 0 1 2-2h28a2 2 0 0 1 2 2v36a2 2 0 0 1-2 2H10a2 2 0 0 1-2-2v-9"/><path d="M31 15h3m-6 8h6m-6 8h6"/><path stroke-linejoin="round" d="M4 15h18v18H4zm6 6l6 6m0-6l-6 6"/></g>
</symbol>

<symbol id="icon-locker" viewBox="0 0 24 24" fill="none" stroke="currentColor" stroke-width="0.1">
  <path fill="currentColor" d="M8 2h8a2 2 0 0 1 2 2v16a2 2 0 0 1-2 2H8a2 2 0 0 1-2-2V4a2 2 0 0 1 2-2m0 2v16h8V4zm2 9h2v4h-2zm0-7h4v1.5h-4zm0 3h4v1.5h-4z"/>
</symbol>

</svg>