<svg xmlns="http://www.w3.org/2000/svg" style="display: none;">

<symbol id="icon-center" viewBox="0 0 30 30" fill="none" stroke="currentColor" stroke-width="1.5">
  <path stroke-linecap="round" stroke-linejoin="round" d="M2.25 21h19.5m-18-18v18m10.5-18v18m6-13.5V21M6.75 6.75h.75m-.75 3h.75m-.75 3h.75m3-6h.75m-.75 3h.75m-.75 3h.75M6.75 21v-3.375c0-.621.504-1.125 1.125-1.125h2.25c.621 0 1.125.504 1.125 1.125V21M3 3h12m-.75 4.5H21m-3.75 3.75h.008v.008h-.008v-.008Zm0 3h.008v.008h-.008v-.008Zm0 3h.008v.008h-.008v-.008Z" />

</symbol>

<symbol id="icon-mail" viewBox="0 0 30 30" fill="none" stroke="currentColor" stroke-width="1.5">
  <path stroke-linecap="round" stroke-linejoin="round" d="M21.75 6.75v10.5a2.25 2.25 0 0 1-2.25 2.25h-15a2.25 2.25 0 0 1-2.25-2.25V6.75m19.5 0A2.25 2.25 0 0 0 19.5 4.5h-15a2.25 2.25 0 0 0-2.25 2.25m19.5 0v.243a2.25 2.25 0 0 1-1.07 1.916l-7.5 4.615a2.25 2.25 0 0 1-2.36 0L3.32 8.91a2.25 2.25 0 0 1-1.07-1.916V6.75" />


</symbol>

<symbol id="icon-lock" viewBox="0 0 30 30" fill="none" stroke="currentColor" stroke-width="1.5">
  <path stroke-linecap="round" stroke-linejoin="round" d="M16.5 10.5V6.75a4.5 4.5 0 1 0-9 0v3.75m-.75 11.25h10.5a2.25 2.25 0 0 0 2.25-2.25v-6.75a2.25 2.25 0 0 0-2.25-2.25H6.75a2.25 2.25 0 0 0-2.25 2.25v6.75a2.25 2.25 0 0 0 2.25 2.25Z" />
</symbol>

<symbol id="icon-shield" viewBox="0 0 30 30" fill="none" stroke="currentColor" stroke-width="1.5">
  <path stroke-linecap="round" stroke-linejoin="round" d="M9 12.75 11.25 15 15 9.75m-3-7.036A11.959 11.959 0 0 1 3.598 6 11.99 11.99 0 0 0 3 9.749c0 5.592 3.824 10.29 9 11.623 5.176-1.332 9-6.03 9-11.622 0-1.31-.21-2.571-.598-3.751h-.152c-3.196 0-6.1-1.248-8.25-3.285Z" />
</symbol>

<symbol id="icon-users" viewBox="0 0 30 30" fill="none" stroke="currentColor" stroke-width="1.5">
  <path stroke-linecap="round" stroke-linejoin="round" d="M15 19.128a9.38 9.38 0 0 0 2.625.372 9.337 9.337 0 0 0 4.121-.952 4.125 4.125 0 0 0-7.533-2.493M15 19.128v-.003c0-1.113-.285-2.16-.786-3.07M15 19.128v.106A12.318 12.318 0 0 1 8.624 21c-2.331 0-4.512-.645-6.374-1.766l-.001-.109a6.375 6.375 0 0 1 11.964-3.07M12 6.375a3.375 3.375 0 1 1-6.75 0 3.375 3.375 0 0 1 6.75 0Zm8.25 2.25a2.625 2.625 0 1 1-5.25 0 2.625 2.625 0 0 1 5.25 0Z" />

</symbol>

<symbol id="icon-folder" viewBox="0 0 30 30" fill="none" stroke="currentColor" stroke-width="1.5">
  <path stroke-linecap="round" stroke-linejoin="round" d="M3.75 9.776c.112-.017.227-.026.344-.026h15.812c.117 0 .232.009.344.026m-16.5 0a2.25 2.25 0 0 0-1.883 2.542l.857 6a2.25 2.25 0 0 0 2.227 1.932H19.05a2.25 2.25 0 0 0 2.227-1.932l.857-6a2.25 2.25 0 0 0-1.883-2.542m-16.5 0V6A2.25 2.25 0 0 1 6 3.75h3.879a1.5 1.5 0 0 1 1.06.44l2.122 2.12a1.5 1.5 0 0 0 1.06.44H18A2.25 2.25 0 0 1 20.25 9v.776" />


</symbol>

<symbol id="icon-house" viewBox="0 0 30 30" fill="none" stroke="currentColor" stroke-width="1.5">
  <path stroke-linecap="round" stroke-linejoin="round" d="m2.25 12 8.954-8.955c.44-.439 1.152-.439 1.591 0L21.75 12M4.5 9.75v10.125c0 .621.504 1.125 1.125 1.125H9.75v-4.875c0-.621.504-1.125 1.125-1.125h2.25c.621 0 1.125.504 1.125 1.125V21h4.125c.621 0 1.125-.504 1.125-1.125V9.75M8.25 21h8.25" />
</symbol>

<symbol id="icon-no-line-arrow" viewBox="0 0 30 30" fill="none" stroke="currentColor" stroke-width="1.5">
  <path stroke-linecap="round" stroke-linejoin="round" d="m8.25 4.5 7.5 7.5-7.5 7.5" />
</symbol>

<symbol id="icon-warning" viewBox="0 0 30 30" fill="none" stroke="currentColor" stroke-width="1.5">
  <path stroke-linecap="round" stroke-linejoin="round" d="M12 9v3.75m-9.303 3.376c-.866 1.5.217 3.374 1.948 3.374h14.71c1.73 0 2.813-1.874 1.948-3.374L13.949 3.378c-.866-1.5-3.032-1.5-3.898 0L2.697 16.126ZM12 15.75h.007v.008H12v-.008Z" />


</symbol>

<symbol id="icon-lens" viewBox="0 0 30 30" fill="none" stroke="currentColor" stroke-width="1.5">
  <path stroke-linecap="round" stroke-linejoin="round" d="m21 21-5.197-5.197m0 0A7.5 7.5 0 1 0 5.196 5.196a7.5 7.5 0 0 0 10.607 10.607Z" />

</symbol>

<symbol id="icon-up-right-arrow" viewBox="0 0 30 30" fill="none" stroke="currentColor" stroke-width="1.5">
  <path stroke-linecap="round" stroke-linejoin="round" d="m4.5 19.5 15-15m0 0H8.25m11.25 0v11.25" />


</symbol>

<symbol id="icon-maps" viewBox="0 0 30 30" fill="none" stroke="currentColor" stroke-width="1.5">
  <path stroke-linecap="round" stroke-linejoin="round" d="M15 10.5a3 3 0 1 1-6 0 3 3 0 0 1 6 0Z" />
  <path stroke-linecap="round" stroke-linejoin="round" d="M19.5 10.5c0 7.142-7.5 11.25-7.5 11.25S4.5 17.642 4.5 10.5a7.5 7.5 0 1 1 15 0Z" />


</symbol>

<symbol id="icon-bell" viewBox="0 0 30 30" fill="none" stroke="currentColor" stroke-width="1.5">
  <path stroke-linecap="round" stroke-linejoin="round" d="M14.857 17.082a23.848 23.848 0 0 0 5.454-1.31A8.967 8.967 0 0 1 18 9.75V9A6 6 0 0 0 6 9v.75a8.967 8.967 0 0 1-2.312 6.022c1.733.64 3.56 1.085 5.455 1.31m5.714 0a24.255 24.255 0 0 1-5.714 0m5.714 0a3 3 0 1 1-5.714 0" />

</symbol>


<symbol id="icon-phone" viewBox="0 0 30 30" fill="none" stroke="currentColor" stroke-width="1.5">
  <path stroke-linecap="round" stroke-linejoin="round" d="M2.25 6.75c0 8.284 6.716 15 15 15h2.25a2.25 2.25 0 0 0 2.25-2.25v-1.372c0-.516-.351-.966-.852-1.091l-4.423-1.106c-.44-.11-.902.055-1.173.417l-.97 1.293c-.282.376-.769.542-1.21.38a12.035 12.035 0 0 1-7.143-7.143c-.162-.441.004-.928.38-1.21l1.293-.97c.363-.271.527-.734.417-1.173L6.963 3.102a1.125 1.125 0 0 0-1.091-.852H4.5A2.25 2.25 0 0 0 2.25 4.5v2.25Z" />

</symbol>

<symbol id="icon-plus" viewBox="0 0 30 30" fill="none" stroke="currentColor" stroke-width="1.5">
  <path stroke-linecap="round" stroke-linejoin="round" d="M12 4.5v15m7.5-7.5h-15" />
</symbol>

<symbol id="icon-check-circle" viewBox="0 0 30 30" fill="none" stroke="currentColor" stroke-width="1.5">
  <path stroke-linecap="round" stroke-linejoin="round" d="M9 12.75 11.25 15 15 9.75M21 12a9 9 0 1 1-18 0 9 9 0 0 1 18 0Z" />
</symbol>

<symbol id="icon-cross-circle" viewBox="0 0 30 30" fill="none" stroke="currentColor" stroke-width="1.5">
  <path stroke-linecap="round" stroke-linejoin="round" d="m9.75 9.75 4.5 4.5m0-4.5-4.5 4.5M21 12a9 9 0 1 1-18 0 9 9 0 0 1 18 0Z" />
</symbol>

<symbol id="icon-square-pen" viewBox="0 0 30 30" fill="none" stroke="currentColor" stroke-width="1.5">
  <path stroke-linecap="round" stroke-linejoin="round" d="m16.862 4.487 1.687-1.688a1.875 1.875 0 1 1 2.652 2.652L10.582 16.07a4.5 4.5 0 0 1-1.897 1.13L6 18l.8-2.685a4.5 4.5 0 0 1 1.13-1.897l8.932-8.931Zm0 0L19.5 7.125M18 14v4.75A2.25 2.25 0 0 1 15.75 21H5.25A2.25 2.25 0 0 1 3 18.75V8.25A2.25 2.25 0 0 1 5.25 6H10" />
</symbol>

<symbol id="icon-user" viewBox="0 0 30 30" fill="none" stroke="currentColor" stroke-width="1.5">
  <path stroke-linecap="round" stroke-linejoin="round" d="M15.75 6a3.75 3.75 0 1 1-7.5 0 3.75 3.75 0 0 1 7.5 0ZM4.501 20.118a7.5 7.5 0 0 1 14.998 0A17.933 17.933 0 0 1 12 21.75c-2.676 0-5.216-.584-7.499-1.632Z" />
</symbol>

<symbol id="icon-calendar" viewBox="0 0 30 30" fill="none" stroke="currentColor" stroke-width="1.5">
  <path stroke-linecap="round" stroke-linejoin="round" d="M6.75 3v2.25M17.25 3v2.25M3 18.75V7.5a2.25 2.25 0 0 1 2.25-2.25h13.5A2.25 2.25 0 0 1 21 7.5v11.25m-18 0A2.25 2.25 0 0 0 5.25 21h13.5A2.25 2.25 0 0 0 21 18.75m-18 0v-7.5A2.25 2.25 0 0 1 5.25 9h13.5A2.25 2.25 0 0 1 21 11.25v7.5" />

</symbol>

<symbol id="icon-knife" viewBox="0 0 30 30" fill="none" stroke="currentColor" stroke-width="1.5">
    <path d="M3 2v7c0 1.1.9 2 2 2h4a2 2 0 0 0 2-2V2"></path>
    <path d="M7 2v20"></path>
    <path d="M21 15V2a5 5 0 0 0-5 5v6c0 1.1.9 2 2 2h3Zm0 0v7"></path>
</symbol>

<symbol id="icon-group-user" viewBox="0 0 30 30" fill="none" stroke="currentColor" stroke-width="1.5">
  <path stroke-linecap="round" stroke-linejoin="round" d="M18 18.72a9.094 9.094 0 0 0 3.741-.479 3 3 0 0 0-4.682-2.72m.94 3.198.001.031c0 .225-.012.447-.037.666A11.944 11.944 0 0 1 12 21c-2.17 0-4.207-.576-5.963-1.584A6.062 6.062 0 0 1 6 18.719m12 0a5.971 5.971 0 0 0-.941-3.197m0 0A5.995 5.995 0 0 0 12 12.75a5.995 5.995 0 0 0-5.058 2.772m0 0a3 3 0 0 0-4.681 2.72 8.986 8.986 0 0 0 3.74.477m.94-3.197a5.971 5.971 0 0 0-.94 3.197M15 6.75a3 3 0 1 1-6 0 3 3 0 0 1 6 0Zm6 3a2.25 2.25 0 1 1-4.5 0 2.25 2.25 0 0 1 4.5 0Zm-13.5 0a2.25 2.25 0 1 1-4.5 0 2.25 2.25 0 0 1 4.5 0Z" />

</symbol>

<symbol id="icon-settings" viewBox="0 0 30 30" fill="none" stroke="currentColor" stroke-width="1.5">
  <path stroke-linecap="round" stroke-linejoin="round" d="M21.75 6.75a4.5 4.5 0 0 1-4.884 4.484c-1.076-.091-2.264.071-2.95.904l-7.152 8.684a2.548 2.548 0 1 1-3.586-3.586l8.684-7.152c.833-.686.995-1.874.904-2.95a4.5 4.5 0 0 1 6.336-4.486l-3.276 3.276a3.004 3.004 0 0 0 2.25 2.25l3.276-3.276c.256.565.398 1.192.398 1.852Z" />
  <path stroke-linecap="round" stroke-linejoin="round" d="M4.867 19.125h.008v.008h-.008v-.008Z" />

</symbol>

<symbol id="icon-clip" viewBox="0 0 30 30" fill="none" stroke="currentColor" stroke-width="1.5">
  <path stroke-linecap="round" stroke-linejoin="round" d="m18.375 12.739-7.693 7.693a4.5 4.5 0 0 1-6.364-6.364l10.94-10.94A3 3 0 1 1 19.5 7.372L8.552 18.32m.009-.01-.01.01m5.699-9.941-7.81 7.81a1.5 1.5 0 0 0 2.112 2.13" />

</symbol>

<symbol id="icon-eye" viewBox="0 0 30 30" fill="none" stroke="currentColor" stroke-width="1.5">
  <path stroke-linecap="round" stroke-linejoin="round" d="M2.036 12.322a1.012 1.012 0 0 1 0-.639C3.423 7.51 7.36 4.5 12 4.5c4.638 0 8.573 3.007 9.963 7.178.07.207.07.431 0 .639C20.577 16.49 16.64 19.5 12 19.5c-4.638 0-8.573-3.007-9.963-7.178Z" />
  <path stroke-linecap="round" stroke-linejoin="round" d="M15 12a3 3 0 1 1-6 0 3 3 0 0 1 6 0Z" />

</symbol>
</svg>