<svg xmlns="http://www.w3.org/2000/svg" style="display: none;">

<symbol id="icon-center" viewBox="0 0 30 30" fill="none" stroke="currentColor" stroke-width="1.5">
<g clip-path="url(#clip0_248_305)">
<g filter="url(#filter0_d_248_305)">
<path d="M21.5625 14.0625H21.5719V14.0719H21.5625V14.0625Z" fill="black"/>
<path d="M21.5625 17.8125H21.5719V17.8219H21.5625V17.8125Z" fill="black"/>
<path d="M21.5625 21.5625H21.5719V21.5719H21.5625V21.5625Z" fill="black"/>
<path d="M2.8125 26.25H27.1875M4.6875 3.75V26.25M17.8125 3.75V26.25M25.3125 9.375V26.25M8.4375 8.4375H9.375M8.4375 12.1875H9.375M8.4375 15.9375H9.375M13.125 8.4375H14.0625M13.125 12.1875H14.0625M13.125 15.9375H14.0625M8.4375 26.25V22.0312C8.4375 21.2546 9.0671 20.625 9.84375 20.625H12.6562C13.4329 20.625 14.0625 21.2546 14.0625 22.0312V26.25M3.75 3.75H18.75M17.8125 9.375H26.25M21.5625 14.0625H21.5719V14.0719H21.5625V14.0625ZM21.5625 17.8125H21.5719V17.8219H21.5625V17.8125ZM21.5625 21.5625H21.5719V21.5719H21.5625V21.5625Z" stroke="black" stroke-width="1.5" stroke-linecap="round" stroke-linejoin="round"/>
</g>
</g>
<defs>
<filter id="filter0_d_248_305" x="-1.9375" y="3" width="33.875" height="32" filterUnits="userSpaceOnUse" color-interpolation-filters="sRGB">
<feFlood flood-opacity="0" result="BackgroundImageFix"/>
<feColorMatrix in="SourceAlpha" type="matrix" values="0 0 0 0 0 0 0 0 0 0 0 0 0 0 0 0 0 0 127 0" result="hardAlpha"/>
<feOffset dy="4"/>
<feGaussianBlur stdDeviation="2"/>
<feComposite in2="hardAlpha" operator="out"/>
<feColorMatrix type="matrix" values="0 0 0 0 0 0 0 0 0 0 0 0 0 0 0 0 0 0 0.25 0"/>
<feBlend mode="normal" in2="BackgroundImageFix" result="effect1_dropShadow_248_305"/>
<feBlend mode="normal" in="SourceGraphic" in2="effect1_dropShadow_248_305" result="shape"/>
</filter>
<clipPath id="clip0_248_305">
<rect width="30" height="30" fill="white"/>
</clipPath>
</defs>
</symbol>

<symbol id="icon-mail" viewBox="0 0 30 30" fill="none" stroke="currentColor" stroke-width="1.5">
<path d="M5.87813 6C4.28906 6 3 7.28906 3 8.87812C3 8.92031 3 8.95781 3.00469 9H3V21C3 22.6547 4.34531 24 6 24H24C25.6547 24 27 22.6547 27 21V9H26.9953C26.9953 8.95781 27 8.92031 27 8.87812C27 7.28906 25.7109 6 24.1219 6H5.87813ZM24.75 12.0141V21C24.75 21.4125 24.4125 21.75 24 21.75H6C5.5875 21.75 5.25 21.4125 5.25 21V12.0141L12.5063 17.5172C13.9781 18.6375 16.0172 18.6375 17.4938 17.5172L24.75 12.0141ZM5.25 8.87812C5.25 8.53125 5.53125 8.25 5.87813 8.25H24.1219C24.4688 8.25 24.75 8.53125 24.75 8.87812C24.75 9.075 24.6563 9.2625 24.5016 9.37969L16.1344 15.7266C15.4641 16.2328 14.5359 16.2328 13.8656 15.7266L5.49844 9.37969C5.34375 9.2625 5.25 9.075 5.25 8.87812Z" fill="black"/>

</symbol>

<symbol id="icon-lock" viewBox="0 0 30 30" fill="none" stroke="currentColor" stroke-width="1.5">
<path d="M15 4.21875C11.64 4.21875 8.90625 6.9525 8.90625 10.3125V12.8192C7.81437 13.2056 7.03125 14.2444 7.03125 15.4688V22.9688C7.03125 24.5222 8.29031 25.7812 9.84375 25.7812H20.1562C21.7097 25.7812 22.9688 24.5222 22.9688 22.9688V15.4688C22.9688 14.2444 22.1856 13.2056 21.0938 12.8192V10.3125C21.0938 6.9525 18.36 4.21875 15 4.21875ZM15 6.09375C17.3264 6.09375 19.2188 7.98656 19.2188 10.3125V12.6562H10.7812V10.3125C10.7812 7.98656 12.6736 6.09375 15 6.09375ZM9.84375 14.5312H20.1562C20.6742 14.5312 21.0938 14.9508 21.0938 15.4688V22.9688C21.0938 23.4867 20.6742 23.9062 20.1562 23.9062H9.84375C9.32578 23.9062 8.90625 23.4867 8.90625 22.9688V15.4688C8.90625 14.9508 9.32578 14.5312 9.84375 14.5312Z" fill="black"/>

</symbol>

<symbol id="icon-shield" viewBox="0 0 30 30" fill="none" stroke="currentColor" stroke-width="1.5">
<path d="M11.25 15.9373L14.0625 18.7498L18.75 12.1873M15 3.39258C12.3119 5.93836 8.68203 7.49977 4.6875 7.49977C4.62403 7.49977 4.56065 7.49937 4.49737 7.49859C4.01237 8.97372 3.75 10.5499 3.75 12.1873C3.75 19.1767 8.5304 25.0496 15 26.7148C21.4696 25.0496 26.25 19.1767 26.25 12.1873C26.25 10.5499 25.9876 8.97372 25.5026 7.49859C25.4393 7.49937 25.376 7.49977 25.3125 7.49977C21.318 7.49977 17.6881 5.93836 15 3.39258Z" stroke="black" stroke-width="1.5" stroke-linecap="round" stroke-linejoin="round"/>

</symbol>

<symbol id="icon-users" viewBox="0 0 30 30" fill="none" stroke="currentColor" stroke-width="1.5">
<path d="M18.75 23.9094C19.7912 24.2125 20.8922 24.375 22.0312 24.375C23.8796 24.375 25.6281 23.947 27.183 23.1848C27.1859 23.1131 27.1874 23.0411 27.1874 22.9688C27.1874 20.121 24.8789 17.8125 22.0312 17.8125C20.2587 17.8125 18.695 18.7069 17.767 20.069M18.75 23.9094V23.9062C18.75 22.5151 18.3935 21.2073 17.767 20.069M18.75 23.9094C18.75 23.954 18.7496 23.9985 18.7488 24.0429C16.4217 25.4441 13.6956 26.25 10.7812 26.25C7.86691 26.25 5.1408 25.4441 2.81365 24.0429C2.81289 23.9974 2.8125 23.9519 2.8125 23.9062C2.8125 19.5052 6.38023 15.9375 10.7812 15.9375C13.7911 15.9375 16.4113 17.6062 17.767 20.069M15 7.96875C15 10.2987 13.1112 12.1875 10.7812 12.1875C8.4513 12.1875 6.5625 10.2987 6.5625 7.96875C6.5625 5.6388 8.4513 3.75 10.7812 3.75C13.1112 3.75 15 5.6388 15 7.96875ZM25.3125 10.7812C25.3125 12.5934 23.8434 14.0625 22.0312 14.0625C20.2191 14.0625 18.75 12.5934 18.75 10.7812C18.75 8.96907 20.2191 7.5 22.0312 7.5C23.8434 7.5 25.3125 8.96907 25.3125 10.7812Z" stroke="black" stroke-width="1.5" stroke-linecap="round" stroke-linejoin="round"/>

</symbol>

<symbol id="icon-folder" viewBox="0 0 30 30" fill="none" stroke="currentColor" stroke-width="1.5">
<path d="M4.68738 12.22C4.82743 12.1986 4.97112 12.1875 5.11772 12.1875H24.882C25.0286 12.1875 25.1723 12.1986 25.3124 12.22M4.68738 12.22C3.19237 12.4485 2.11217 13.8485 2.33348 15.3977L3.40491 22.8977C3.60285 24.2833 4.7895 25.3125 6.18915 25.3125H23.8106C25.2103 25.3125 26.3969 24.2833 26.5948 22.8978L27.6663 15.3977C27.8876 13.8485 26.8074 12.4485 25.3124 12.22M4.68738 12.22V7.5C4.68738 5.9467 5.94658 4.6875 7.49988 4.6875H12.3482C12.8455 4.6875 13.3224 4.88504 13.6741 5.23667L16.3257 7.88833C16.6773 8.23996 17.1542 8.4375 17.6515 8.4375H22.4999C24.0532 8.4375 25.3124 9.6967 25.3124 11.25V12.22" stroke="black" stroke-width="1.5" stroke-linecap="round" stroke-linejoin="round"/>

</symbol>

<symbol id="icon-house" viewBox="0 0 30 30" fill="none" stroke="currentColor" stroke-width="1.5">
 <path d="M2.8125 15L14.0056 3.8069C14.5548 3.25773 15.4452 3.25773 15.9944 3.8069L27.1875 15M5.625 12.1875V24.8438C5.625 25.6204 6.2546 26.25 7.03125 26.25H12.1875V20.1563C12.1875 19.3796 12.8171 18.75 13.5938 18.75H16.4062C17.1829 18.75 17.8125 19.3796 17.8125 20.1563V26.25H22.9688C23.7454 26.25 24.375 25.6204 24.375 24.8438V12.1875M10.3125 26.25H20.625" stroke="black" stroke-width="1.5" stroke-linecap="round" stroke-linejoin="round"/>

</symbol>

<symbol id="icon-no-line-arrow" viewBox="0 0 30 30" fill="none" stroke="currentColor" stroke-width="1.5">
<path d="M10.3125 5.625L19.6875 15L10.3125 24.375" stroke="black" stroke-width="1.5" stroke-linecap="round" stroke-linejoin="round"/>

</symbol>

<symbol id="icon-warning" viewBox="0 0 30 30" fill="none" stroke="currentColor" stroke-width="1.5">
<path d="M10.3125 5.625L19.6875 15L10.3125 24.375" stroke="black" stroke-width="1.5" stroke-linecap="round" stroke-linejoin="round"/>

</symbol>

<symbol id="icon-lens" viewBox="0 0 30 30" fill="none" stroke="currentColor" stroke-width="1.5">
<path d="M26.25 26.25L19.7541 19.7541M19.7541 19.7541C21.4507 18.0576 22.5 15.7138 22.5 13.125C22.5 7.94733 18.3027 3.75 13.125 3.75C7.94733 3.75 3.75 7.94733 3.75 13.125C3.75 18.3027 7.94733 22.5 13.125 22.5C15.7138 22.5 18.0576 21.4507 19.7541 19.7541Z" stroke="black" stroke-width="1.5" stroke-linecap="round" stroke-linejoin="round"/>

</symbol>

<symbol id="icon-up-right-arrow" viewBox="0 0 30 30" fill="none" stroke="currentColor" stroke-width="1.5">
<path fill-rule="evenodd" clip-rule="evenodd" d="M4.96209 25.0379C4.59597 24.6718 4.59597 24.0782 4.96209 23.7121L22.1117 6.5625L10.3125 6.5625C9.79473 6.5625 9.375 6.14277 9.375 5.625C9.375 5.10723 9.79473 4.6875 10.3125 4.6875L24.375 4.6875C24.8928 4.6875 25.3125 5.10723 25.3125 5.625L25.3125 19.6875C25.3125 20.2053 24.8928 20.625 24.375 20.625C23.8572 20.625 23.4375 20.2053 23.4375 19.6875L23.4375 7.88832L6.28791 25.0379C5.92179 25.404 5.32821 25.404 4.96209 25.0379Z" fill="black"/>

</symbol>

<symbol id="icon-maps" viewBox="0 0 30 30" fill="none" stroke="currentColor" stroke-width="1.5">
<path d="M18.75 13.125C18.75 15.1961 17.0711 16.875 15 16.875C12.9289 16.875 11.25 15.1961 11.25 13.125C11.25 11.0539 12.9289 9.375 15 9.375C17.0711 9.375 18.75 11.0539 18.75 13.125Z" stroke="black" stroke-width="1.5" stroke-linecap="round" stroke-linejoin="round"/>
<path d="M24.375 13.125C24.375 22.0527 15 27.1875 15 27.1875C15 27.1875 5.625 22.0527 5.625 13.125C5.625 7.94733 9.82233 3.75 15 3.75C20.1777 3.75 24.375 7.94733 24.375 13.125Z" stroke="black" stroke-width="1.5" stroke-linecap="round" stroke-linejoin="round"/>

</symbol>

<symbol id="icon-bell" viewBox="0 0 30 30" fill="none" stroke="currentColor" stroke-width="1.5">
<path d="M18.5708 21.3521C20.939 21.0712 23.2227 20.5145 25.3887 19.7148C23.5927 17.7213 22.4995 15.082 22.4995 12.1875V11.3115C22.4997 11.291 22.4998 11.2705 22.4998 11.25C22.4998 7.10786 19.1419 3.75 14.9998 3.75C10.8576 3.75 7.49976 7.10786 7.49976 11.25L7.49951 12.1875C7.49951 15.082 6.40635 17.7213 4.61035 19.7148C6.77651 20.5145 9.0603 21.0713 11.4287 21.3522M18.5708 21.3521C17.3997 21.491 16.208 21.5625 14.9995 21.5625C13.7912 21.5625 12.5996 21.4911 11.4287 21.3522M18.5708 21.3521C18.687 21.7139 18.7498 22.0996 18.7498 22.5C18.7498 24.5711 17.0708 26.25 14.9998 26.25C12.9287 26.25 11.2498 24.5711 11.2498 22.5C11.2498 22.0996 11.3125 21.7139 11.4287 21.3522" stroke="black" stroke-width="1.5" stroke-linecap="round" stroke-linejoin="round"/>

</symbol>


<symbol id="icon-phone" viewBox="0 0 30 30" fill="none" stroke="currentColor" stroke-width="1.5">
<path d="M2.8125 8.4375C2.8125 18.7928 11.2072 27.1875 21.5625 27.1875H24.375C25.9283 27.1875 27.1875 25.9283 27.1875 24.375V22.6605C27.1875 22.0152 26.7483 21.4527 26.1223 21.2962L20.5933 19.914C20.0444 19.7767 19.4667 19.9818 19.1273 20.4345L17.9145 22.0515C17.5625 22.5208 16.9538 22.7283 16.4029 22.5265C12.2692 21.0123 8.98769 17.7308 7.47345 13.5971C7.27167 13.0462 7.4792 12.4375 7.9485 12.0855L9.56553 10.8727C10.0182 10.5333 10.2233 9.95557 10.086 9.40666L8.7038 3.87768C8.54729 3.25167 7.98482 2.8125 7.33953 2.8125H5.625C4.0717 2.8125 2.8125 4.0717 2.8125 5.625V8.4375Z" stroke="black" stroke-width="1.5" stroke-linecap="round" stroke-linejoin="round"/>


</symbol>

<symbol id="icon-plus" viewBox="0 0 30 30" fill="none" stroke="currentColor" stroke-width="1.5">
<path d="M15 5.625V24.375M24.375 15L5.625 15" stroke="black" stroke-width="1.5" stroke-linecap="round" stroke-linejoin="round"/>

</symbol>

<symbol id="icon-check-circle" viewBox="0 0 30 30" fill="none" stroke="currentColor" stroke-width="1.5">
<path d="M11.25 15.9375L14.0625 18.75L18.75 12.1875M26.25 15C26.25 21.2132 21.2132 26.25 15 26.25C8.7868 26.25 3.75 21.2132 3.75 15C3.75 8.7868 8.7868 3.75 15 3.75C21.2132 3.75 26.25 8.7868 26.25 15Z" stroke="black" stroke-width="1.5" stroke-linecap="round" stroke-linejoin="round"/>

</symbol>

<symbol id="icon-cross-circle" viewBox="0 0 30 30" fill="none" stroke="currentColor" stroke-width="1.5">
<path d="M12.1875 12.1875L17.8125 17.8125M17.8125 12.1875L12.1875 17.8125M26.25 15C26.25 21.2132 21.2132 26.25 15 26.25C8.7868 26.25 3.75 21.2132 3.75 15C3.75 8.7868 8.7868 3.75 15 3.75C21.2132 3.75 26.25 8.7868 26.25 15Z" stroke="black" stroke-width="1.5" stroke-linecap="round" stroke-linejoin="round"/>

</symbol>

<symbol id="icon-squere-pen" viewBox="0 0 30 30" fill="none" stroke="currentColor" stroke-width="1.5">
<path d="M16.8617 4.48667L18.5492 2.79917C19.2814 2.06694 20.4686 2.06694 21.2008 2.79917C21.9331 3.53141 21.9331 4.71859 21.2008 5.45083L10.5822 16.0695C10.0535 16.5981 9.40144 16.9868 8.68489 17.2002L6 18L6.79978 15.3151C7.01323 14.5986 7.40185 13.9465 7.93052 13.4178L16.8617 4.48667ZM16.8617 4.48667L19.5 7.12499M18 14V18.75C18 19.9926 16.9926 21 15.75 21H5.25C4.00736 21 3 19.9926 3 18.75V8.24999C3 7.00735 4.00736 5.99999 5.25 5.99999H10" stroke="black" stroke-width="1.5" stroke-linecap="round" stroke-linejoin="round"/>

</symbol>

<symbol id="icon-user" viewBox="0 0 30 30" fill="none" stroke="currentColor" stroke-width="1.5">
    <path d="M19.6871 7.5C19.6871 10.0888 17.5884 12.1875 14.9996 12.1875C12.4107 12.1875 10.3121 10.0888 10.3121 7.5C10.3121 4.91117 12.4107 2.8125 14.9996 2.8125C17.5884 2.8125 19.6871 4.91117 19.6871 7.5Z" stroke="#000000" stroke-width="1.5" stroke-linecap="round" stroke-linejoin="round"/>
    <path d="M5.62598 25.1478C5.71386 20.0461 9.8769 15.9375 14.9996 15.9375C20.1223 15.9375 24.2855 20.0463 24.3731 25.1482C21.5197 26.4575 18.3451 27.1875 15 27.1875C11.6546 27.1875 8.47968 26.4574 5.62598 25.1478Z" stroke="#000000" stroke-width="1.5" stroke-linecap="round" stroke-linejoin="round"/>
</symbol>

<symbol id="icon-calendar" viewBox="0 0 30 30" fill="none" stroke="currentColor" stroke-width="1.5">
    <path d="M8.4375 3.75V6.5625M21.5625 3.75V6.5625M3.75 23.4375V9.375C3.75 7.8217 5.0092 6.5625 6.5625 6.5625H23.4375C24.9908 6.5625 26.25 7.8217 26.25 9.375V23.4375M3.75 23.4375C3.75 24.9908 5.0092 26.25 6.5625 26.25H23.4375C24.9908 26.25 26.25 24.9908 26.25 23.4375M3.75 23.4375V14.0625C3.75 12.5092 5.0092 11.25 6.5625 11.25H23.4375C24.9908 11.25 26.25 12.5092 26.25 14.0625V23.4375" stroke="#000000" stroke-width="1.5" stroke-linecap="round" stroke-linejoin="round"/>
</symbol>

<symbol id="icon-knife" viewBox="0 0 30 30" fill="none" stroke="currentColor" stroke-width="1.5">
<path d="M1 1V11.5C1 13.15 2.49999 14.5 4.33332 14.5H11C11.884 14.5 12.7319 14.1839 13.357 13.6213C13.9821 13.0587 14.3333 12.2956 14.3333 11.5V1" stroke="#000000" stroke-width="1.5" stroke-linecap="round" stroke-linejoin="round"/>
<path d="M7.66602 1V31" stroke="#000000" stroke-width="1.5" stroke-linecap="round" stroke-linejoin="round"/>
<path d="M31.0003 20.5V1C28.7902 1 26.6706 1.79018 25.1078 3.1967C23.545 4.60322 22.667 6.51088 22.667 8.5V17.5C22.667 19.15 24.167 20.5 26.0003 20.5H31.0003ZM31.0003 20.5V31" stroke="#000000" stroke-width="1.5" stroke-linecap="round" stroke-linejoin="round"/>
</symbol>

<symbol id="icon-3-users" viewBox="0 0 30 30" fill="none" stroke="currentColor" stroke-width="1.5">
<path d="M22.5 23.3989C22.8094 23.4245 23.1223 23.4375 23.4383 23.4375C24.7487 23.4375 26.0068 23.2135 27.1763 22.8016C27.1842 22.7021 27.1883 22.6015 27.1883 22.5C27.1883 20.4289 25.5093 18.75 23.4383 18.75C22.6538 18.75 21.9255 18.9909 21.3235 19.4028M22.5 23.3989C22.5 23.4118 22.5001 23.4246 22.5001 23.4375C22.5001 23.7187 22.4846 23.9964 22.4544 24.2696C20.2585 25.5296 17.7134 26.25 15.0001 26.25C12.2867 26.25 9.74165 25.5296 7.54569 24.2696C7.51554 23.9964 7.50006 23.7187 7.50006 23.4375C7.50006 23.4247 7.50009 23.4119 7.50016 23.3991M22.5 23.3989C22.4926 21.9282 22.0619 20.5577 21.3235 19.4028M21.3235 19.4028C19.9911 17.319 17.6569 15.9375 15.0001 15.9375C12.3436 15.9375 10.0096 17.3186 8.67717 19.402M8.67717 19.402C8.07535 18.9906 7.34751 18.75 6.56348 18.75C4.49241 18.75 2.81348 20.4289 2.81348 22.5C2.81348 22.6015 2.81751 22.7021 2.82543 22.8016C3.99497 23.2135 5.25306 23.4375 6.56348 23.4375C6.8789 23.4375 7.1913 23.4245 7.50016 23.3991M8.67717 19.402C7.93844 20.5571 7.50754 21.928 7.50016 23.3991M18.7501 8.4375C18.7501 10.5086 17.0711 12.1875 15.0001 12.1875C12.929 12.1875 11.2501 10.5086 11.2501 8.4375C11.2501 6.36643 12.929 4.6875 15.0001 4.6875C17.0711 4.6875 18.7501 6.36643 18.7501 8.4375ZM26.2501 12.1875C26.2501 13.7408 24.9909 15 23.4376 15C21.8843 15 20.6251 13.7408 20.6251 12.1875C20.6251 10.6342 21.8843 9.375 23.4376 9.375C24.9909 9.375 26.2501 10.6342 26.2501 12.1875ZM9.37506 12.1875C9.37506 13.7408 8.11586 15 6.56256 15C5.00926 15 3.75006 13.7408 3.75006 12.1875C3.75006 10.6342 5.00926 9.375 6.56256 9.375C8.11586 9.375 9.37506 10.6342 9.37506 12.1875Z" stroke="#000000" stroke-width="1.5" stroke-linecap="round" stroke-linejoin="round"/>
</symbol>

<symbol id="icon-settings" viewBox="0 0 30 30" fill="none" stroke="currentColor" stroke-width="1.5">
<path d="M27.1875 8.4375C27.1875 11.5441 24.6691 14.0625 21.5625 14.0625C21.4008 14.0625 21.2406 14.0557 21.0824 14.0423C19.7381 13.9287 18.252 14.1315 17.3944 15.1729L8.4554 26.0274C7.85046 26.7619 6.94871 27.1875 5.99711 27.1875C4.2383 27.1875 2.8125 25.7617 2.8125 24.0029C2.8125 23.0513 3.23806 22.1495 3.97263 21.5446L14.8271 12.6057C15.8685 11.748 16.0713 10.2619 15.9577 8.91764C15.9443 8.75937 15.9375 8.59923 15.9375 8.4375C15.9375 5.3309 18.4559 2.8125 21.5625 2.8125C22.3879 2.8125 23.1718 2.99029 23.878 3.30967L19.7827 7.40496C20.1029 8.79954 21.2006 9.89732 22.5952 10.2175L26.6904 6.12224C27.0097 6.82835 27.1875 7.61216 27.1875 8.4375Z" stroke="black" stroke-width="1.5" stroke-linecap="round" stroke-linejoin="round"/>
<path d="M6.08404 23.9063H6.09342V23.9157H6.08404V23.9063Z" stroke="black" stroke-width="1.5" stroke-linecap="round" stroke-linejoin="round"/>
</symbol>

<symbol id="icon-clip" viewBox="0 0 30 30" fill="none" stroke="currentColor" stroke-width="1.5">
<path d="M22.9687 15.9237L13.3525 25.54C11.1558 27.7367 7.59422 27.7367 5.39752 25.54C3.20083 23.3433 3.20082 19.7817 5.39752 17.585L19.0716 3.91085C20.5361 2.44638 22.9104 2.44638 24.3749 3.91085C25.8394 5.37532 25.8394 7.74968 24.3749 9.21415L10.6895 22.8996M10.7008 22.8883C10.6971 22.8921 10.6933 22.8958 10.6895 22.8996M17.8123 10.4733L8.04918 20.2367C7.31694 20.9689 7.31694 22.1561 8.04918 22.8883C8.77764 23.6168 9.95638 23.6205 10.6895 22.8996" stroke="black" stroke-width="1.5" stroke-linecap="round" stroke-linejoin="round"/>
</symbol>

<symbol id="icon-eye" viewBox="0 0 30 30" fill="none" stroke="currentColor" stroke-width="1.5">
<path d="M2.54432 15.403C2.45796 15.1439 2.45788 14.8634 2.54408 14.6043C4.27954 9.38715 9.20086 5.625 15.0009 5.625C20.7982 5.625 25.7177 9.38366 27.4553 14.597C27.5416 14.8561 27.5417 15.1366 27.4555 15.3957C25.7201 20.6128 20.7987 24.375 14.9987 24.375C9.20137 24.375 4.28193 20.6163 2.54432 15.403Z" stroke="black" stroke-width="1.5" stroke-linecap="round" stroke-linejoin="round"/>
<path d="M18.7499 15C18.7499 17.0711 17.0709 18.75 14.9999 18.75C12.9288 18.75 11.2499 17.0711 11.2499 15C11.2499 12.9289 12.9288 11.25 14.9999 11.25C17.0709 11.25 18.7499 12.9289 18.7499 15Z" stroke="black" stroke-width="1.5" stroke-linecap="round" stroke-linejoin="round"/>
</symbol>
</svg>