<svg xmlns="http://www.w3.org/2000/svg" style="display: none;">

<symbol id="icon-center" viewBox="0 0 30 30" fill="none" stroke="currentColor" stroke-width="1.5">
    <g clip-path="url(#clip0_248_305)">
    <g filter="url(#filter0_d_248_305)">
    <path d="M21.5625 14.0625H21.5719V14.0719H21.5625V14.0625Z" fill="black"/>
    <path d="M21.5625 17.8125H21.5719V17.8219H21.5625V17.8125Z" fill="black"/>
    <path d="M21.5625 21.5625H21.5719V21.5719H21.5625V21.5625Z" fill="black"/>
    <path d="M2.8125 26.25H27.1875M4.6875 3.75V26.25M17.8125 3.75V26.25M25.3125 9.375V26.25M8.4375 8.4375H9.375M8.4375 12.1875H9.375M8.4375 15.9375H9.375M13.125 8.4375H14.0625M13.125 12.1875H14.0625M13.125 15.9375H14.0625M8.4375 26.25V22.0312C8.4375 21.2546 9.0671 20.625 9.84375 20.625H12.6562C13.4329 20.625 14.0625 21.2546 14.0625 22.0312V26.25M3.75 3.75H18.75M17.8125 9.375H26.25M21.5625 14.0625H21.5719V14.0719H21.5625V14.0625ZM21.5625 17.8125H21.5719V17.8219H21.5625V17.8125ZM21.5625 21.5625H21.5719V21.5719H21.5625V21.5625Z" stroke="black" stroke-width="1.5" stroke-linecap="round" stroke-linejoin="round"/>
    </g>
    </g>
    <defs>
    <filter id="filter0_d_248_305" x="-1.9375" y="3" width="33.875" height="32" filterUnits="userSpaceOnUse" color-interpolation-filters="sRGB">
    <feFlood flood-opacity="0" result="BackgroundImageFix"/>
    <feColorMatrix in="SourceAlpha" type="matrix" values="0 0 0 0 0 0 0 0 0 0 0 0 0 0 0 0 0 0 127 0" result="hardAlpha"/>
    <feOffset dy="4"/>
    <feGaussianBlur stdDeviation="2"/>
    <feComposite in2="hardAlpha" operator="out"/>
    <feColorMatrix type="matrix" values="0 0 0 0 0 0 0 0 0 0 0 0 0 0 0 0 0 0 0.25 0"/>
    <feBlend mode="normal" in2="BackgroundImageFix" result="effect1_dropShadow_248_305"/>
    <feBlend mode="normal" in="SourceGraphic" in2="effect1_dropShadow_248_305" result="shape"/>
    </filter>
    <clipPath id="clip0_248_305">
    <rect width="30" height="30" fill="white"/>
    </clipPath>
    </defs>
</symbol>

<symbol id="icon-mail" viewBox="0 0 30 30" fill="none" stroke="currentColor" stroke-width="1.5">
    <path d="M5.87813 6C4.28906 6 3 7.28906 3 8.87812C3 8.92031 3 8.95781 3.00469 9H3V21C3 22.6547 4.34531 24 6 24H24C25.6547 24 27 22.6547 27 21V9H26.9953C26.9953 8.95781 27 8.92031 27 8.87812C27 7.28906 25.7109 6 24.1219 6H5.87813ZM24.75 12.0141V21C24.75 21.4125 24.4125 21.75 24 21.75H6C5.5875 21.75 5.25 21.4125 5.25 21V12.0141L12.5063 17.5172C13.9781 18.6375 16.0172 18.6375 17.4938 17.5172L24.75 12.0141ZM5.25 8.87812C5.25 8.53125 5.53125 8.25 5.87813 8.25H24.1219C24.4688 8.25 24.75 8.53125 24.75 8.87812C24.75 9.075 24.6563 9.2625 24.5016 9.37969L16.1344 15.7266C15.4641 16.2328 14.5359 16.2328 13.8656 15.7266L5.49844 9.37969C5.34375 9.2625 5.25 9.075 5.25 8.87812Z" fill="black"/>
</symbol>

<symbol id="icon-lock" viewBox="0 0 30 30" fill="none" stroke="currentColor" stroke-width="1.5">
    <path d="M5.87813 6C4.28906 6 3 7.28906 3 8.87812C3 8.92031 3 8.95781 3.00469 9H3V21C3 22.6547 4.34531 24 6 24H24C25.6547 24 27 22.6547 27 21V9H26.9953C26.9953 8.95781 27 8.92031 27 8.87812C27 7.28906 25.7109 6 24.1219 6H5.87813ZM24.75 12.0141V21C24.75 21.4125 24.4125 21.75 24 21.75H6C5.5875 21.75 5.25 21.4125 5.25 21V12.0141L12.5063 17.5172C13.9781 18.6375 16.0172 18.6375 17.4938 17.5172L24.75 12.0141ZM5.25 8.87812C5.25 8.53125 5.53125 8.25 5.87813 8.25H24.1219C24.4688 8.25 24.75 8.53125 24.75 8.87812C24.75 9.075 24.6563 9.2625 24.5016 9.37969L16.1344 15.7266C15.4641 16.2328 14.5359 16.2328 13.8656 15.7266L5.49844 9.37969C5.34375 9.2625 5.25 9.075 5.25 8.87812Z" fill="black"/>
</symbol>

<symbol id="icon-shield" viewBox="0 0 30 30" fill="none" stroke="currentColor" stroke-width="1.5">
    <path d="M11.25 15.9373L14.0625 18.7498L18.75 12.1873M15 3.39258C12.3119 5.93836 8.68203 7.49977 4.6875 7.49977C4.62403 7.49977 4.56065 7.49937 4.49737 7.49859C4.01237 8.97372 3.75 10.5499 3.75 12.1873C3.75 19.1767 8.5304 25.0496 15 26.7148C21.4696 25.0496 26.25 19.1767 26.25 12.1873C26.25 10.5499 25.9876 8.97372 25.5026 7.49859C25.4393 7.49937 25.376 7.49977 25.3125 7.49977C21.318 7.49977 17.6881 5.93836 15 3.39258Z" stroke="black" stroke-width="1.5" stroke-linecap="round" stroke-linejoin="round"/>
</symbol>

<symbol id="icon-2-users" viewBox="0 0 30 30" fill="none" stroke="currentColor" stroke-width="1.5">
    <path d="M18.75 23.9094C19.7912 24.2125 20.8922 24.375 22.0312 24.375C23.8796 24.375 25.6281 23.947 27.183 23.1848C27.1859 23.1131 27.1874 23.0411 27.1874 22.9688C27.1874 20.121 24.8789 17.8125 22.0312 17.8125C20.2587 17.8125 18.695 18.7069 17.767 20.069M18.75 23.9094V23.9062C18.75 22.5151 18.3935 21.2073 17.767 20.069M18.75 23.9094C18.75 23.954 18.7496 23.9985 18.7488 24.0429C16.4217 25.4441 13.6956 26.25 10.7812 26.25C7.86691 26.25 5.1408 25.4441 2.81365 24.0429C2.81289 23.9974 2.8125 23.9519 2.8125 23.9062C2.8125 19.5052 6.38023 15.9375 10.7812 15.9375C13.7911 15.9375 16.4113 17.6062 17.767 20.069M15 7.96875C15 10.2987 13.1112 12.1875 10.7812 12.1875C8.4513 12.1875 6.5625 10.2987 6.5625 7.96875C6.5625 5.6388 8.4513 3.75 10.7812 3.75C13.1112 3.75 15 5.6388 15 7.96875ZM25.3125 10.7812C25.3125 12.5934 23.8434 14.0625 22.0312 14.0625C20.2191 14.0625 18.75 12.5934 18.75 10.7812C18.75 8.96907 20.2191 7.5 22.0312 7.5C23.8434 7.5 25.3125 8.96907 25.3125 10.7812Z" stroke="black" stroke-width="1.5" stroke-linecap="round" stroke-linejoin="round"/>
</symbol>

<symbol id="icon-2-carpet" viewBox="0 0 30 30" fill="none" stroke="currentColor" stroke-width="1.5">
    <path d="M4.68738 12.22C4.82743 12.1986 4.97112 12.1875 5.11772 12.1875H24.882C25.0286 12.1875 25.1723 12.1986 25.3124 12.22M4.68738 12.22C3.19237 12.4485 2.11217 13.8485 2.33348 15.3977L3.40491 22.8977C3.60285 24.2833 4.7895 25.3125 6.18915 25.3125H23.8106C25.2103 25.3125 26.3969 24.2833 26.5948 22.8978L27.6663 15.3977C27.8876 13.8485 26.8074 12.4485 25.3124 12.22M4.68738 12.22V7.5C4.68738 5.9467 5.94658 4.6875 7.49988 4.6875H12.3482C12.8455 4.6875 13.3224 4.88504 13.6741 5.23667L16.3257 7.88833C16.6773 8.23996 17.1542 8.4375 17.6515 8.4375H22.4999C24.0532 8.4375 25.3124 9.6967 25.3124 11.25V12.22" stroke="black" stroke-width="1.5" stroke-linecap="round" stroke-linejoin="round"/>
</symbol>



</svg>